G04 #@! TF.GenerationSoftware,KiCad,Pcbnew,(5.1.6)-1*
G04 #@! TF.CreationDate,2020-09-01T22:28:32+02:00*
G04 #@! TF.ProjectId,UtU,5574552e-6b69-4636-9164-5f7063625858,rev?*
G04 #@! TF.SameCoordinates,Original*
G04 #@! TF.FileFunction,Soldermask,Top*
G04 #@! TF.FilePolarity,Negative*
%FSLAX46Y46*%
G04 Gerber Fmt 4.6, Leading zero omitted, Abs format (unit mm)*
G04 Created by KiCad (PCBNEW (5.1.6)-1) date 2020-09-01 22:28:32*
%MOMM*%
%LPD*%
G01*
G04 APERTURE LIST*
%ADD10C,0.100000*%
%ADD11R,1.549999X0.660000*%
%ADD12O,1.800000X1.800000*%
%ADD13R,1.800000X1.800000*%
%ADD14C,3.416000*%
%ADD15C,1.528000*%
%ADD16R,1.528000X1.528000*%
%ADD17R,1.410000X0.650000*%
%ADD18R,1.410000X1.040000*%
G04 APERTURE END LIST*
D10*
G04 #@! TO.C,U2*
G36*
X125500000Y-63194365D02*
G01*
X127055635Y-64750000D01*
X125500000Y-66305635D01*
X123944365Y-64750000D01*
X125500000Y-63194365D01*
G37*
G36*
X127395046Y-64969203D02*
G01*
X128038513Y-65612670D01*
X127741528Y-65909655D01*
X127098061Y-65266188D01*
X127395046Y-64969203D01*
G37*
G36*
X126935427Y-65428823D02*
G01*
X127578894Y-66072290D01*
X127281909Y-66369275D01*
X126638442Y-65725808D01*
X126935427Y-65428823D01*
G37*
G36*
X126475808Y-65888442D02*
G01*
X127119275Y-66531909D01*
X126822290Y-66828894D01*
X126178823Y-66185427D01*
X126475808Y-65888442D01*
G37*
G36*
X126016188Y-66348061D02*
G01*
X126659655Y-66991528D01*
X126362670Y-67288513D01*
X125719203Y-66645046D01*
X126016188Y-66348061D01*
G37*
G36*
X124983812Y-66348061D02*
G01*
X125280797Y-66645046D01*
X124637330Y-67288513D01*
X124340345Y-66991528D01*
X124983812Y-66348061D01*
G37*
G36*
X124524192Y-65888442D02*
G01*
X124821177Y-66185427D01*
X124177710Y-66828894D01*
X123880725Y-66531909D01*
X124524192Y-65888442D01*
G37*
G36*
X124064573Y-65428823D02*
G01*
X124361558Y-65725808D01*
X123718091Y-66369275D01*
X123421106Y-66072290D01*
X124064573Y-65428823D01*
G37*
G36*
X123604954Y-64969203D02*
G01*
X123901939Y-65266188D01*
X123258472Y-65909655D01*
X122961487Y-65612670D01*
X123604954Y-64969203D01*
G37*
G36*
X123258472Y-63590345D02*
G01*
X123901939Y-64233812D01*
X123604954Y-64530797D01*
X122961487Y-63887330D01*
X123258472Y-63590345D01*
G37*
G36*
X123718091Y-63130725D02*
G01*
X124361558Y-63774192D01*
X124064573Y-64071177D01*
X123421106Y-63427710D01*
X123718091Y-63130725D01*
G37*
G36*
X124177710Y-62671106D02*
G01*
X124821177Y-63314573D01*
X124524192Y-63611558D01*
X123880725Y-62968091D01*
X124177710Y-62671106D01*
G37*
G36*
X124637330Y-62211487D02*
G01*
X125280797Y-62854954D01*
X124983812Y-63151939D01*
X124340345Y-62508472D01*
X124637330Y-62211487D01*
G37*
G36*
X126362670Y-62211487D02*
G01*
X126659655Y-62508472D01*
X126016188Y-63151939D01*
X125719203Y-62854954D01*
X126362670Y-62211487D01*
G37*
G36*
X126822290Y-62671106D02*
G01*
X127119275Y-62968091D01*
X126475808Y-63611558D01*
X126178823Y-63314573D01*
X126822290Y-62671106D01*
G37*
G36*
X127281909Y-63130725D02*
G01*
X127578894Y-63427710D01*
X126935427Y-64071177D01*
X126638442Y-63774192D01*
X127281909Y-63130725D01*
G37*
G36*
X127741528Y-63590345D02*
G01*
X128038513Y-63887330D01*
X127395046Y-64530797D01*
X127098061Y-64233812D01*
X127741528Y-63590345D01*
G37*
G04 #@! TD*
D11*
G04 #@! TO.C,U1*
X144130000Y-63095000D03*
X144130000Y-64365000D03*
X144130000Y-65635000D03*
X144130000Y-66905000D03*
X134370000Y-66905000D03*
X134370000Y-65635000D03*
X134370000Y-64365000D03*
X134370000Y-63095000D03*
G04 #@! TD*
G04 #@! TO.C,R2*
G36*
G01*
X118650000Y-61981250D02*
X118650000Y-61018750D01*
G75*
G02*
X118918750Y-60750000I268750J0D01*
G01*
X119456250Y-60750000D01*
G75*
G02*
X119725000Y-61018750I0J-268750D01*
G01*
X119725000Y-61981250D01*
G75*
G02*
X119456250Y-62250000I-268750J0D01*
G01*
X118918750Y-62250000D01*
G75*
G02*
X118650000Y-61981250I0J268750D01*
G01*
G37*
G36*
G01*
X116775000Y-61981250D02*
X116775000Y-61018750D01*
G75*
G02*
X117043750Y-60750000I268750J0D01*
G01*
X117581250Y-60750000D01*
G75*
G02*
X117850000Y-61018750I0J-268750D01*
G01*
X117850000Y-61981250D01*
G75*
G02*
X117581250Y-62250000I-268750J0D01*
G01*
X117043750Y-62250000D01*
G75*
G02*
X116775000Y-61981250I0J268750D01*
G01*
G37*
G04 #@! TD*
G04 #@! TO.C,R1*
G36*
G01*
X117850000Y-63268750D02*
X117850000Y-64231250D01*
G75*
G02*
X117581250Y-64500000I-268750J0D01*
G01*
X117043750Y-64500000D01*
G75*
G02*
X116775000Y-64231250I0J268750D01*
G01*
X116775000Y-63268750D01*
G75*
G02*
X117043750Y-63000000I268750J0D01*
G01*
X117581250Y-63000000D01*
G75*
G02*
X117850000Y-63268750I0J-268750D01*
G01*
G37*
G36*
G01*
X119725000Y-63268750D02*
X119725000Y-64231250D01*
G75*
G02*
X119456250Y-64500000I-268750J0D01*
G01*
X118918750Y-64500000D01*
G75*
G02*
X118650000Y-64231250I0J268750D01*
G01*
X118650000Y-63268750D01*
G75*
G02*
X118918750Y-63000000I268750J0D01*
G01*
X119456250Y-63000000D01*
G75*
G02*
X119725000Y-63268750I0J-268750D01*
G01*
G37*
G04 #@! TD*
D12*
G04 #@! TO.C,J2*
X150000000Y-68620000D03*
X150000000Y-66080000D03*
X150000000Y-63540000D03*
D13*
X150000000Y-61000000D03*
G04 #@! TD*
D14*
G04 #@! TO.C,J1*
X108290000Y-71020000D03*
X108290000Y-58980000D03*
D15*
X111000000Y-66250000D03*
X111000000Y-63750000D03*
D16*
X113000000Y-66250000D03*
D15*
X113000000Y-63750000D03*
G04 #@! TD*
G04 #@! TO.C,FB1*
G36*
G01*
X114100000Y-72268750D02*
X114100000Y-73231250D01*
G75*
G02*
X113831250Y-73500000I-268750J0D01*
G01*
X113293750Y-73500000D01*
G75*
G02*
X113025000Y-73231250I0J268750D01*
G01*
X113025000Y-72268750D01*
G75*
G02*
X113293750Y-72000000I268750J0D01*
G01*
X113831250Y-72000000D01*
G75*
G02*
X114100000Y-72268750I0J-268750D01*
G01*
G37*
G36*
G01*
X115975000Y-72268750D02*
X115975000Y-73231250D01*
G75*
G02*
X115706250Y-73500000I-268750J0D01*
G01*
X115168750Y-73500000D01*
G75*
G02*
X114900000Y-73231250I0J268750D01*
G01*
X114900000Y-72268750D01*
G75*
G02*
X115168750Y-72000000I268750J0D01*
G01*
X115706250Y-72000000D01*
G75*
G02*
X115975000Y-72268750I0J-268750D01*
G01*
G37*
G04 #@! TD*
G04 #@! TO.C,D3*
G36*
G01*
X118650000Y-57231250D02*
X118650000Y-56268750D01*
G75*
G02*
X118918750Y-56000000I268750J0D01*
G01*
X119456250Y-56000000D01*
G75*
G02*
X119725000Y-56268750I0J-268750D01*
G01*
X119725000Y-57231250D01*
G75*
G02*
X119456250Y-57500000I-268750J0D01*
G01*
X118918750Y-57500000D01*
G75*
G02*
X118650000Y-57231250I0J268750D01*
G01*
G37*
G36*
G01*
X116775000Y-57231250D02*
X116775000Y-56268750D01*
G75*
G02*
X117043750Y-56000000I268750J0D01*
G01*
X117581250Y-56000000D01*
G75*
G02*
X117850000Y-56268750I0J-268750D01*
G01*
X117850000Y-57231250D01*
G75*
G02*
X117581250Y-57500000I-268750J0D01*
G01*
X117043750Y-57500000D01*
G75*
G02*
X116775000Y-57231250I0J268750D01*
G01*
G37*
G04 #@! TD*
G04 #@! TO.C,D2*
G36*
G01*
X118650000Y-59731250D02*
X118650000Y-58768750D01*
G75*
G02*
X118918750Y-58500000I268750J0D01*
G01*
X119456250Y-58500000D01*
G75*
G02*
X119725000Y-58768750I0J-268750D01*
G01*
X119725000Y-59731250D01*
G75*
G02*
X119456250Y-60000000I-268750J0D01*
G01*
X118918750Y-60000000D01*
G75*
G02*
X118650000Y-59731250I0J268750D01*
G01*
G37*
G36*
G01*
X116775000Y-59731250D02*
X116775000Y-58768750D01*
G75*
G02*
X117043750Y-58500000I268750J0D01*
G01*
X117581250Y-58500000D01*
G75*
G02*
X117850000Y-58768750I0J-268750D01*
G01*
X117850000Y-59731250D01*
G75*
G02*
X117581250Y-60000000I-268750J0D01*
G01*
X117043750Y-60000000D01*
G75*
G02*
X116775000Y-59731250I0J268750D01*
G01*
G37*
G04 #@! TD*
D17*
G04 #@! TO.C,D1*
X117500000Y-70040000D03*
X119500000Y-70040000D03*
D18*
X119500000Y-71760000D03*
D17*
X117500000Y-71960000D03*
G04 #@! TD*
G04 #@! TO.C,C8*
G36*
G01*
X122850000Y-71268750D02*
X122850000Y-72231250D01*
G75*
G02*
X122581250Y-72500000I-268750J0D01*
G01*
X122043750Y-72500000D01*
G75*
G02*
X121775000Y-72231250I0J268750D01*
G01*
X121775000Y-71268750D01*
G75*
G02*
X122043750Y-71000000I268750J0D01*
G01*
X122581250Y-71000000D01*
G75*
G02*
X122850000Y-71268750I0J-268750D01*
G01*
G37*
G36*
G01*
X124725000Y-71268750D02*
X124725000Y-72231250D01*
G75*
G02*
X124456250Y-72500000I-268750J0D01*
G01*
X123918750Y-72500000D01*
G75*
G02*
X123650000Y-72231250I0J268750D01*
G01*
X123650000Y-71268750D01*
G75*
G02*
X123918750Y-71000000I268750J0D01*
G01*
X124456250Y-71000000D01*
G75*
G02*
X124725000Y-71268750I0J-268750D01*
G01*
G37*
G04 #@! TD*
G04 #@! TO.C,C7*
G36*
G01*
X129057452Y-60876862D02*
X128376862Y-61557452D01*
G75*
G02*
X127996792Y-61557452I-190035J190035D01*
G01*
X127616722Y-61177382D01*
G75*
G02*
X127616722Y-60797312I190035J190035D01*
G01*
X128297312Y-60116722D01*
G75*
G02*
X128677382Y-60116722I190035J-190035D01*
G01*
X129057452Y-60496792D01*
G75*
G02*
X129057452Y-60876862I-190035J-190035D01*
G01*
G37*
G36*
G01*
X130383278Y-62202688D02*
X129702688Y-62883278D01*
G75*
G02*
X129322618Y-62883278I-190035J190035D01*
G01*
X128942548Y-62503208D01*
G75*
G02*
X128942548Y-62123138I190035J190035D01*
G01*
X129623138Y-61442548D01*
G75*
G02*
X130003208Y-61442548I190035J-190035D01*
G01*
X130383278Y-61822618D01*
G75*
G02*
X130383278Y-62202688I-190035J-190035D01*
G01*
G37*
G04 #@! TD*
G04 #@! TO.C,C6*
G36*
G01*
X123307452Y-67626862D02*
X122626862Y-68307452D01*
G75*
G02*
X122246792Y-68307452I-190035J190035D01*
G01*
X121866722Y-67927382D01*
G75*
G02*
X121866722Y-67547312I190035J190035D01*
G01*
X122547312Y-66866722D01*
G75*
G02*
X122927382Y-66866722I190035J-190035D01*
G01*
X123307452Y-67246792D01*
G75*
G02*
X123307452Y-67626862I-190035J-190035D01*
G01*
G37*
G36*
G01*
X124633278Y-68952688D02*
X123952688Y-69633278D01*
G75*
G02*
X123572618Y-69633278I-190035J190035D01*
G01*
X123192548Y-69253208D01*
G75*
G02*
X123192548Y-68873138I190035J190035D01*
G01*
X123873138Y-68192548D01*
G75*
G02*
X124253208Y-68192548I190035J-190035D01*
G01*
X124633278Y-68572618D01*
G75*
G02*
X124633278Y-68952688I-190035J-190035D01*
G01*
G37*
G04 #@! TD*
M02*
