G04 #@! TF.GenerationSoftware,KiCad,Pcbnew,(5.1.6)-1*
G04 #@! TF.CreationDate,2020-09-01T22:28:32+02:00*
G04 #@! TF.ProjectId,UtU,5574552e-6b69-4636-9164-5f7063625858,rev?*
G04 #@! TF.SameCoordinates,Original*
G04 #@! TF.FileFunction,Copper,L2,Bot*
G04 #@! TF.FilePolarity,Positive*
%FSLAX46Y46*%
G04 Gerber Fmt 4.6, Leading zero omitted, Abs format (unit mm)*
G04 Created by KiCad (PCBNEW (5.1.6)-1) date 2020-09-01 22:28:32*
%MOMM*%
%LPD*%
G01*
G04 APERTURE LIST*
G04 #@! TA.AperFunction,ComponentPad*
%ADD10O,1.700000X1.700000*%
G04 #@! TD*
G04 #@! TA.AperFunction,ComponentPad*
%ADD11R,1.700000X1.700000*%
G04 #@! TD*
G04 #@! TA.AperFunction,ComponentPad*
%ADD12C,3.316000*%
G04 #@! TD*
G04 #@! TA.AperFunction,ComponentPad*
%ADD13C,1.428000*%
G04 #@! TD*
G04 #@! TA.AperFunction,ComponentPad*
%ADD14R,1.428000X1.428000*%
G04 #@! TD*
G04 #@! TA.AperFunction,ViaPad*
%ADD15C,0.800000*%
G04 #@! TD*
G04 #@! TA.AperFunction,Conductor*
%ADD16C,0.500000*%
G04 #@! TD*
G04 #@! TA.AperFunction,Conductor*
%ADD17C,0.250000*%
G04 #@! TD*
G04 #@! TA.AperFunction,Conductor*
%ADD18C,0.254000*%
G04 #@! TD*
G04 APERTURE END LIST*
G04 #@! TO.P,R4,2*
G04 #@! TO.N,VCCusb*
G04 #@! TA.AperFunction,SMDPad,CuDef*
G36*
G01*
X123512500Y-57206250D02*
X123512500Y-56293750D01*
G75*
G02*
X123756250Y-56050000I243750J0D01*
G01*
X124243750Y-56050000D01*
G75*
G02*
X124487500Y-56293750I0J-243750D01*
G01*
X124487500Y-57206250D01*
G75*
G02*
X124243750Y-57450000I-243750J0D01*
G01*
X123756250Y-57450000D01*
G75*
G02*
X123512500Y-57206250I0J243750D01*
G01*
G37*
G04 #@! TD.AperFunction*
G04 #@! TO.P,R4,1*
G04 #@! TO.N,Net-(D3-Pad2)*
G04 #@! TA.AperFunction,SMDPad,CuDef*
G36*
G01*
X121637500Y-57206250D02*
X121637500Y-56293750D01*
G75*
G02*
X121881250Y-56050000I243750J0D01*
G01*
X122368750Y-56050000D01*
G75*
G02*
X122612500Y-56293750I0J-243750D01*
G01*
X122612500Y-57206250D01*
G75*
G02*
X122368750Y-57450000I-243750J0D01*
G01*
X121881250Y-57450000D01*
G75*
G02*
X121637500Y-57206250I0J243750D01*
G01*
G37*
G04 #@! TD.AperFunction*
G04 #@! TD*
G04 #@! TO.P,R3,2*
G04 #@! TO.N,VCCusb*
G04 #@! TA.AperFunction,SMDPad,CuDef*
G36*
G01*
X123450000Y-59706250D02*
X123450000Y-58793750D01*
G75*
G02*
X123693750Y-58550000I243750J0D01*
G01*
X124181250Y-58550000D01*
G75*
G02*
X124425000Y-58793750I0J-243750D01*
G01*
X124425000Y-59706250D01*
G75*
G02*
X124181250Y-59950000I-243750J0D01*
G01*
X123693750Y-59950000D01*
G75*
G02*
X123450000Y-59706250I0J243750D01*
G01*
G37*
G04 #@! TD.AperFunction*
G04 #@! TO.P,R3,1*
G04 #@! TO.N,Net-(D2-Pad2)*
G04 #@! TA.AperFunction,SMDPad,CuDef*
G36*
G01*
X121575000Y-59706250D02*
X121575000Y-58793750D01*
G75*
G02*
X121818750Y-58550000I243750J0D01*
G01*
X122306250Y-58550000D01*
G75*
G02*
X122550000Y-58793750I0J-243750D01*
G01*
X122550000Y-59706250D01*
G75*
G02*
X122306250Y-59950000I-243750J0D01*
G01*
X121818750Y-59950000D01*
G75*
G02*
X121575000Y-59706250I0J243750D01*
G01*
G37*
G04 #@! TD.AperFunction*
G04 #@! TD*
D10*
G04 #@! TO.P,J2,4*
G04 #@! TO.N,GND2*
X150000000Y-68620000D03*
G04 #@! TO.P,J2,3*
G04 #@! TO.N,ISOTX*
X150000000Y-66080000D03*
G04 #@! TO.P,J2,2*
G04 #@! TO.N,ISORX*
X150000000Y-63540000D03*
D11*
G04 #@! TO.P,J2,1*
G04 #@! TO.N,Net-(C5-Pad2)*
X150000000Y-61000000D03*
G04 #@! TD*
D12*
G04 #@! TO.P,J1,5*
G04 #@! TO.N,GND1*
X108290000Y-71020000D03*
X108290000Y-58980000D03*
D13*
G04 #@! TO.P,J1,4*
X111000000Y-66250000D03*
G04 #@! TO.P,J1,3*
G04 #@! TO.N,D+*
X111000000Y-63750000D03*
D14*
G04 #@! TO.P,J1,1*
G04 #@! TO.N,Net-(C1-Pad2)*
X113000000Y-66250000D03*
D13*
G04 #@! TO.P,J1,2*
G04 #@! TO.N,D-*
X113000000Y-63750000D03*
G04 #@! TD*
G04 #@! TO.P,C5,2*
G04 #@! TO.N,Net-(C5-Pad2)*
G04 #@! TA.AperFunction,SMDPad,CuDef*
G36*
G01*
X144706250Y-64550000D02*
X143793750Y-64550000D01*
G75*
G02*
X143550000Y-64306250I0J243750D01*
G01*
X143550000Y-63818750D01*
G75*
G02*
X143793750Y-63575000I243750J0D01*
G01*
X144706250Y-63575000D01*
G75*
G02*
X144950000Y-63818750I0J-243750D01*
G01*
X144950000Y-64306250D01*
G75*
G02*
X144706250Y-64550000I-243750J0D01*
G01*
G37*
G04 #@! TD.AperFunction*
G04 #@! TO.P,C5,1*
G04 #@! TO.N,GND2*
G04 #@! TA.AperFunction,SMDPad,CuDef*
G36*
G01*
X144706250Y-66425000D02*
X143793750Y-66425000D01*
G75*
G02*
X143550000Y-66181250I0J243750D01*
G01*
X143550000Y-65693750D01*
G75*
G02*
X143793750Y-65450000I243750J0D01*
G01*
X144706250Y-65450000D01*
G75*
G02*
X144950000Y-65693750I0J-243750D01*
G01*
X144950000Y-66181250D01*
G75*
G02*
X144706250Y-66425000I-243750J0D01*
G01*
G37*
G04 #@! TD.AperFunction*
G04 #@! TD*
G04 #@! TO.P,C4,2*
G04 #@! TO.N,GND1*
G04 #@! TA.AperFunction,SMDPad,CuDef*
G36*
G01*
X113706250Y-59800000D02*
X112793750Y-59800000D01*
G75*
G02*
X112550000Y-59556250I0J243750D01*
G01*
X112550000Y-59068750D01*
G75*
G02*
X112793750Y-58825000I243750J0D01*
G01*
X113706250Y-58825000D01*
G75*
G02*
X113950000Y-59068750I0J-243750D01*
G01*
X113950000Y-59556250D01*
G75*
G02*
X113706250Y-59800000I-243750J0D01*
G01*
G37*
G04 #@! TD.AperFunction*
G04 #@! TO.P,C4,1*
G04 #@! TO.N,D+*
G04 #@! TA.AperFunction,SMDPad,CuDef*
G36*
G01*
X113706250Y-61675000D02*
X112793750Y-61675000D01*
G75*
G02*
X112550000Y-61431250I0J243750D01*
G01*
X112550000Y-60943750D01*
G75*
G02*
X112793750Y-60700000I243750J0D01*
G01*
X113706250Y-60700000D01*
G75*
G02*
X113950000Y-60943750I0J-243750D01*
G01*
X113950000Y-61431250D01*
G75*
G02*
X113706250Y-61675000I-243750J0D01*
G01*
G37*
G04 #@! TD.AperFunction*
G04 #@! TD*
G04 #@! TO.P,C3,2*
G04 #@! TO.N,GND1*
G04 #@! TA.AperFunction,SMDPad,CuDef*
G36*
G01*
X118700000Y-66456250D02*
X118700000Y-65543750D01*
G75*
G02*
X118943750Y-65300000I243750J0D01*
G01*
X119431250Y-65300000D01*
G75*
G02*
X119675000Y-65543750I0J-243750D01*
G01*
X119675000Y-66456250D01*
G75*
G02*
X119431250Y-66700000I-243750J0D01*
G01*
X118943750Y-66700000D01*
G75*
G02*
X118700000Y-66456250I0J243750D01*
G01*
G37*
G04 #@! TD.AperFunction*
G04 #@! TO.P,C3,1*
G04 #@! TO.N,D-*
G04 #@! TA.AperFunction,SMDPad,CuDef*
G36*
G01*
X116825000Y-66456250D02*
X116825000Y-65543750D01*
G75*
G02*
X117068750Y-65300000I243750J0D01*
G01*
X117556250Y-65300000D01*
G75*
G02*
X117800000Y-65543750I0J-243750D01*
G01*
X117800000Y-66456250D01*
G75*
G02*
X117556250Y-66700000I-243750J0D01*
G01*
X117068750Y-66700000D01*
G75*
G02*
X116825000Y-66456250I0J243750D01*
G01*
G37*
G04 #@! TD.AperFunction*
G04 #@! TD*
G04 #@! TO.P,C2,2*
G04 #@! TO.N,GND1*
G04 #@! TA.AperFunction,SMDPad,CuDef*
G36*
G01*
X133793750Y-65450000D02*
X134706250Y-65450000D01*
G75*
G02*
X134950000Y-65693750I0J-243750D01*
G01*
X134950000Y-66181250D01*
G75*
G02*
X134706250Y-66425000I-243750J0D01*
G01*
X133793750Y-66425000D01*
G75*
G02*
X133550000Y-66181250I0J243750D01*
G01*
X133550000Y-65693750D01*
G75*
G02*
X133793750Y-65450000I243750J0D01*
G01*
G37*
G04 #@! TD.AperFunction*
G04 #@! TO.P,C2,1*
G04 #@! TO.N,VCCio*
G04 #@! TA.AperFunction,SMDPad,CuDef*
G36*
G01*
X133793750Y-63575000D02*
X134706250Y-63575000D01*
G75*
G02*
X134950000Y-63818750I0J-243750D01*
G01*
X134950000Y-64306250D01*
G75*
G02*
X134706250Y-64550000I-243750J0D01*
G01*
X133793750Y-64550000D01*
G75*
G02*
X133550000Y-64306250I0J243750D01*
G01*
X133550000Y-63818750D01*
G75*
G02*
X133793750Y-63575000I243750J0D01*
G01*
G37*
G04 #@! TD.AperFunction*
G04 #@! TD*
G04 #@! TO.P,C1,2*
G04 #@! TO.N,Net-(C1-Pad2)*
G04 #@! TA.AperFunction,SMDPad,CuDef*
G36*
G01*
X113456250Y-69050000D02*
X112543750Y-69050000D01*
G75*
G02*
X112300000Y-68806250I0J243750D01*
G01*
X112300000Y-68318750D01*
G75*
G02*
X112543750Y-68075000I243750J0D01*
G01*
X113456250Y-68075000D01*
G75*
G02*
X113700000Y-68318750I0J-243750D01*
G01*
X113700000Y-68806250D01*
G75*
G02*
X113456250Y-69050000I-243750J0D01*
G01*
G37*
G04 #@! TD.AperFunction*
G04 #@! TO.P,C1,1*
G04 #@! TO.N,GND1*
G04 #@! TA.AperFunction,SMDPad,CuDef*
G36*
G01*
X113456250Y-70925000D02*
X112543750Y-70925000D01*
G75*
G02*
X112300000Y-70681250I0J243750D01*
G01*
X112300000Y-70193750D01*
G75*
G02*
X112543750Y-69950000I243750J0D01*
G01*
X113456250Y-69950000D01*
G75*
G02*
X113700000Y-70193750I0J-243750D01*
G01*
X113700000Y-70681250D01*
G75*
G02*
X113456250Y-70925000I-243750J0D01*
G01*
G37*
G04 #@! TD.AperFunction*
G04 #@! TD*
D15*
G04 #@! TO.N,Net-(C1-Pad2)*
X114600000Y-67900000D03*
G04 #@! TO.N,GND1*
X121000000Y-70700000D03*
X132000000Y-61000000D03*
X131000000Y-60000000D03*
X130000000Y-59000000D03*
X129000000Y-58000000D03*
X128000000Y-57000000D03*
X127000000Y-58000000D03*
X126000000Y-59000000D03*
X126000000Y-61000000D03*
X126000000Y-57000000D03*
X115000000Y-57000000D03*
X113000000Y-57000000D03*
X111000000Y-57000000D03*
X111000000Y-61000000D03*
X116000000Y-61000000D03*
X116000000Y-59000000D03*
X108000000Y-67000000D03*
X108000000Y-65000000D03*
X108000000Y-63000000D03*
X111000000Y-73000000D03*
X127000000Y-73000000D03*
X127000000Y-71000000D03*
X127000000Y-69000000D03*
X129000000Y-69000000D03*
X129000000Y-71000000D03*
X129000000Y-73000000D03*
X131000000Y-73000000D03*
X131000000Y-71000000D03*
X131000000Y-69000000D03*
X133000000Y-70000000D03*
G04 #@! TO.N,VCCio*
X132655000Y-63095000D03*
X121300000Y-64000000D03*
X128900000Y-65600000D03*
G04 #@! TO.N,D-*
X115700000Y-65300000D03*
G04 #@! TO.N,D+*
X114500000Y-62300000D03*
X115800000Y-70500000D03*
G04 #@! TO.N,Net-(C5-Pad2)*
X145845000Y-63095000D03*
G04 #@! TO.N,GND2*
X152500000Y-72500000D03*
X152500000Y-70000000D03*
X152500000Y-67500000D03*
X152500000Y-65000000D03*
X152500000Y-62500000D03*
X152500000Y-60000000D03*
X152500000Y-57500000D03*
X150000000Y-57500000D03*
X147500000Y-57500000D03*
X147500000Y-60000000D03*
X145000000Y-60000000D03*
X145000000Y-70000000D03*
X147500000Y-70000000D03*
X147500000Y-72500000D03*
X150000000Y-72500000D03*
X147500000Y-67500000D03*
G04 #@! TO.N,VCCusb*
X121100000Y-66100000D03*
G04 #@! TO.N,Net-(D2-Pad2)*
X120700000Y-59200000D03*
G04 #@! TO.N,Net-(D3-Pad2)*
X120700000Y-56800000D03*
G04 #@! TO.N,RX*
X129600000Y-64000000D03*
X127911924Y-62695385D03*
G04 #@! TD*
D16*
G04 #@! TO.N,Net-(C1-Pad2)*
X113000000Y-68562500D02*
X113937500Y-68562500D01*
X113937500Y-68562500D02*
X114600000Y-67900000D01*
G04 #@! TO.N,VCCio*
X134250000Y-64062500D02*
X133622500Y-64062500D01*
X133622500Y-64062500D02*
X132655000Y-63095000D01*
D17*
X120374999Y-64925001D02*
X120374999Y-66448001D01*
X121300000Y-64000000D02*
X120374999Y-64925001D01*
X120751999Y-66825001D02*
X127674999Y-66825001D01*
X120374999Y-66448001D02*
X120751999Y-66825001D01*
X127674999Y-66825001D02*
X128900000Y-65600000D01*
G04 #@! TO.N,D-*
X117312500Y-66000000D02*
X116400000Y-66000000D01*
X116400000Y-66000000D02*
X115700000Y-65300000D01*
G04 #@! TO.N,D+*
X113250000Y-61187500D02*
X113387500Y-61187500D01*
X113387500Y-61187500D02*
X114500000Y-62300000D01*
X114500000Y-66726998D02*
X114500000Y-62300000D01*
X115800000Y-68026998D02*
X114500000Y-66726998D01*
X115800000Y-70500000D02*
X115800000Y-68026998D01*
D16*
G04 #@! TO.N,Net-(C5-Pad2)*
X144877500Y-64062500D02*
X145845000Y-63095000D01*
X144250000Y-64062500D02*
X144877500Y-64062500D01*
G04 #@! TO.N,VCCusb*
X123937500Y-63262500D02*
X123937500Y-59250000D01*
X121100000Y-66100000D02*
X123937500Y-63262500D01*
X123937500Y-56812500D02*
X124000000Y-56750000D01*
X123937500Y-59250000D02*
X123937500Y-56812500D01*
G04 #@! TO.N,Net-(D2-Pad2)*
X122012500Y-59200000D02*
X122062500Y-59250000D01*
X120700000Y-59200000D02*
X122012500Y-59200000D01*
G04 #@! TO.N,Net-(D3-Pad2)*
X122125000Y-56750000D02*
X120750000Y-56750000D01*
X120750000Y-56750000D02*
X120700000Y-56800000D01*
D17*
G04 #@! TO.N,RX*
X129600000Y-64000000D02*
X129216539Y-64000000D01*
X129216539Y-64000000D02*
X127911924Y-62695385D01*
G04 #@! TD*
D18*
G04 #@! TO.N,GND2*
G36*
X154340001Y-74340000D02*
G01*
X147519606Y-74340000D01*
X142156496Y-68976890D01*
X148558524Y-68976890D01*
X148603175Y-69124099D01*
X148728359Y-69386920D01*
X148902412Y-69620269D01*
X149118645Y-69815178D01*
X149368748Y-69964157D01*
X149643109Y-70061481D01*
X149873000Y-69940814D01*
X149873000Y-68747000D01*
X150127000Y-68747000D01*
X150127000Y-69940814D01*
X150356891Y-70061481D01*
X150631252Y-69964157D01*
X150881355Y-69815178D01*
X151097588Y-69620269D01*
X151271641Y-69386920D01*
X151396825Y-69124099D01*
X151441476Y-68976890D01*
X151320155Y-68747000D01*
X150127000Y-68747000D01*
X149873000Y-68747000D01*
X148679845Y-68747000D01*
X148558524Y-68976890D01*
X142156496Y-68976890D01*
X142127000Y-68947394D01*
X142127000Y-66425000D01*
X142911928Y-66425000D01*
X142924188Y-66549482D01*
X142960498Y-66669180D01*
X143019463Y-66779494D01*
X143098815Y-66876185D01*
X143195506Y-66955537D01*
X143305820Y-67014502D01*
X143425518Y-67050812D01*
X143550000Y-67063072D01*
X143964250Y-67060000D01*
X144123000Y-66901250D01*
X144123000Y-66064500D01*
X144377000Y-66064500D01*
X144377000Y-66901250D01*
X144535750Y-67060000D01*
X144950000Y-67063072D01*
X145074482Y-67050812D01*
X145194180Y-67014502D01*
X145304494Y-66955537D01*
X145401185Y-66876185D01*
X145480537Y-66779494D01*
X145539502Y-66669180D01*
X145575812Y-66549482D01*
X145588072Y-66425000D01*
X145585000Y-66223250D01*
X145426250Y-66064500D01*
X144377000Y-66064500D01*
X144123000Y-66064500D01*
X143073750Y-66064500D01*
X142915000Y-66223250D01*
X142911928Y-66425000D01*
X142127000Y-66425000D01*
X142127000Y-63818750D01*
X142911928Y-63818750D01*
X142911928Y-64306250D01*
X142928872Y-64478285D01*
X142979053Y-64643709D01*
X143060542Y-64796164D01*
X143170208Y-64929792D01*
X143176564Y-64935008D01*
X143098815Y-64998815D01*
X143019463Y-65095506D01*
X142960498Y-65205820D01*
X142924188Y-65325518D01*
X142911928Y-65450000D01*
X142915000Y-65651750D01*
X143073750Y-65810500D01*
X144123000Y-65810500D01*
X144123000Y-65790500D01*
X144377000Y-65790500D01*
X144377000Y-65810500D01*
X145426250Y-65810500D01*
X145585000Y-65651750D01*
X145588072Y-65450000D01*
X145575812Y-65325518D01*
X145539502Y-65205820D01*
X145480537Y-65095506D01*
X145401185Y-64998815D01*
X145323436Y-64935008D01*
X145329792Y-64929792D01*
X145439458Y-64796164D01*
X145487047Y-64707132D01*
X145506317Y-64691317D01*
X145534034Y-64657544D01*
X146090044Y-64101535D01*
X146146898Y-64090226D01*
X146335256Y-64012205D01*
X146504774Y-63898937D01*
X146648937Y-63754774D01*
X146762205Y-63585256D01*
X146840226Y-63396898D01*
X146880000Y-63196939D01*
X146880000Y-62993061D01*
X146840226Y-62793102D01*
X146762205Y-62604744D01*
X146648937Y-62435226D01*
X146504774Y-62291063D01*
X146335256Y-62177795D01*
X146146898Y-62099774D01*
X145946939Y-62060000D01*
X145743061Y-62060000D01*
X145543102Y-62099774D01*
X145354744Y-62177795D01*
X145185226Y-62291063D01*
X145041063Y-62435226D01*
X144927795Y-62604744D01*
X144849774Y-62793102D01*
X144838465Y-62849956D01*
X144747437Y-62940985D01*
X144706250Y-62936928D01*
X143793750Y-62936928D01*
X143621715Y-62953872D01*
X143456291Y-63004053D01*
X143303836Y-63085542D01*
X143170208Y-63195208D01*
X143060542Y-63328836D01*
X142979053Y-63481291D01*
X142928872Y-63646715D01*
X142911928Y-63818750D01*
X142127000Y-63818750D01*
X142127000Y-61052606D01*
X143029606Y-60150000D01*
X148511928Y-60150000D01*
X148511928Y-61850000D01*
X148524188Y-61974482D01*
X148560498Y-62094180D01*
X148619463Y-62204494D01*
X148698815Y-62301185D01*
X148795506Y-62380537D01*
X148905820Y-62439502D01*
X148978380Y-62461513D01*
X148846525Y-62593368D01*
X148684010Y-62836589D01*
X148572068Y-63106842D01*
X148515000Y-63393740D01*
X148515000Y-63686260D01*
X148572068Y-63973158D01*
X148684010Y-64243411D01*
X148846525Y-64486632D01*
X149053368Y-64693475D01*
X149227760Y-64810000D01*
X149053368Y-64926525D01*
X148846525Y-65133368D01*
X148684010Y-65376589D01*
X148572068Y-65646842D01*
X148515000Y-65933740D01*
X148515000Y-66226260D01*
X148572068Y-66513158D01*
X148684010Y-66783411D01*
X148846525Y-67026632D01*
X149053368Y-67233475D01*
X149235534Y-67355195D01*
X149118645Y-67424822D01*
X148902412Y-67619731D01*
X148728359Y-67853080D01*
X148603175Y-68115901D01*
X148558524Y-68263110D01*
X148679845Y-68493000D01*
X149873000Y-68493000D01*
X149873000Y-68473000D01*
X150127000Y-68473000D01*
X150127000Y-68493000D01*
X151320155Y-68493000D01*
X151441476Y-68263110D01*
X151396825Y-68115901D01*
X151271641Y-67853080D01*
X151097588Y-67619731D01*
X150881355Y-67424822D01*
X150764466Y-67355195D01*
X150946632Y-67233475D01*
X151153475Y-67026632D01*
X151315990Y-66783411D01*
X151427932Y-66513158D01*
X151485000Y-66226260D01*
X151485000Y-65933740D01*
X151427932Y-65646842D01*
X151315990Y-65376589D01*
X151153475Y-65133368D01*
X150946632Y-64926525D01*
X150772240Y-64810000D01*
X150946632Y-64693475D01*
X151153475Y-64486632D01*
X151315990Y-64243411D01*
X151427932Y-63973158D01*
X151485000Y-63686260D01*
X151485000Y-63393740D01*
X151427932Y-63106842D01*
X151315990Y-62836589D01*
X151153475Y-62593368D01*
X151021620Y-62461513D01*
X151094180Y-62439502D01*
X151204494Y-62380537D01*
X151301185Y-62301185D01*
X151380537Y-62204494D01*
X151439502Y-62094180D01*
X151475812Y-61974482D01*
X151488072Y-61850000D01*
X151488072Y-60150000D01*
X151475812Y-60025518D01*
X151439502Y-59905820D01*
X151380537Y-59795506D01*
X151301185Y-59698815D01*
X151204494Y-59619463D01*
X151094180Y-59560498D01*
X150974482Y-59524188D01*
X150850000Y-59511928D01*
X149150000Y-59511928D01*
X149025518Y-59524188D01*
X148905820Y-59560498D01*
X148795506Y-59619463D01*
X148698815Y-59698815D01*
X148619463Y-59795506D01*
X148560498Y-59905820D01*
X148524188Y-60025518D01*
X148511928Y-60150000D01*
X143029606Y-60150000D01*
X147519606Y-55660000D01*
X154340000Y-55660000D01*
X154340001Y-74340000D01*
G37*
X154340001Y-74340000D02*
X147519606Y-74340000D01*
X142156496Y-68976890D01*
X148558524Y-68976890D01*
X148603175Y-69124099D01*
X148728359Y-69386920D01*
X148902412Y-69620269D01*
X149118645Y-69815178D01*
X149368748Y-69964157D01*
X149643109Y-70061481D01*
X149873000Y-69940814D01*
X149873000Y-68747000D01*
X150127000Y-68747000D01*
X150127000Y-69940814D01*
X150356891Y-70061481D01*
X150631252Y-69964157D01*
X150881355Y-69815178D01*
X151097588Y-69620269D01*
X151271641Y-69386920D01*
X151396825Y-69124099D01*
X151441476Y-68976890D01*
X151320155Y-68747000D01*
X150127000Y-68747000D01*
X149873000Y-68747000D01*
X148679845Y-68747000D01*
X148558524Y-68976890D01*
X142156496Y-68976890D01*
X142127000Y-68947394D01*
X142127000Y-66425000D01*
X142911928Y-66425000D01*
X142924188Y-66549482D01*
X142960498Y-66669180D01*
X143019463Y-66779494D01*
X143098815Y-66876185D01*
X143195506Y-66955537D01*
X143305820Y-67014502D01*
X143425518Y-67050812D01*
X143550000Y-67063072D01*
X143964250Y-67060000D01*
X144123000Y-66901250D01*
X144123000Y-66064500D01*
X144377000Y-66064500D01*
X144377000Y-66901250D01*
X144535750Y-67060000D01*
X144950000Y-67063072D01*
X145074482Y-67050812D01*
X145194180Y-67014502D01*
X145304494Y-66955537D01*
X145401185Y-66876185D01*
X145480537Y-66779494D01*
X145539502Y-66669180D01*
X145575812Y-66549482D01*
X145588072Y-66425000D01*
X145585000Y-66223250D01*
X145426250Y-66064500D01*
X144377000Y-66064500D01*
X144123000Y-66064500D01*
X143073750Y-66064500D01*
X142915000Y-66223250D01*
X142911928Y-66425000D01*
X142127000Y-66425000D01*
X142127000Y-63818750D01*
X142911928Y-63818750D01*
X142911928Y-64306250D01*
X142928872Y-64478285D01*
X142979053Y-64643709D01*
X143060542Y-64796164D01*
X143170208Y-64929792D01*
X143176564Y-64935008D01*
X143098815Y-64998815D01*
X143019463Y-65095506D01*
X142960498Y-65205820D01*
X142924188Y-65325518D01*
X142911928Y-65450000D01*
X142915000Y-65651750D01*
X143073750Y-65810500D01*
X144123000Y-65810500D01*
X144123000Y-65790500D01*
X144377000Y-65790500D01*
X144377000Y-65810500D01*
X145426250Y-65810500D01*
X145585000Y-65651750D01*
X145588072Y-65450000D01*
X145575812Y-65325518D01*
X145539502Y-65205820D01*
X145480537Y-65095506D01*
X145401185Y-64998815D01*
X145323436Y-64935008D01*
X145329792Y-64929792D01*
X145439458Y-64796164D01*
X145487047Y-64707132D01*
X145506317Y-64691317D01*
X145534034Y-64657544D01*
X146090044Y-64101535D01*
X146146898Y-64090226D01*
X146335256Y-64012205D01*
X146504774Y-63898937D01*
X146648937Y-63754774D01*
X146762205Y-63585256D01*
X146840226Y-63396898D01*
X146880000Y-63196939D01*
X146880000Y-62993061D01*
X146840226Y-62793102D01*
X146762205Y-62604744D01*
X146648937Y-62435226D01*
X146504774Y-62291063D01*
X146335256Y-62177795D01*
X146146898Y-62099774D01*
X145946939Y-62060000D01*
X145743061Y-62060000D01*
X145543102Y-62099774D01*
X145354744Y-62177795D01*
X145185226Y-62291063D01*
X145041063Y-62435226D01*
X144927795Y-62604744D01*
X144849774Y-62793102D01*
X144838465Y-62849956D01*
X144747437Y-62940985D01*
X144706250Y-62936928D01*
X143793750Y-62936928D01*
X143621715Y-62953872D01*
X143456291Y-63004053D01*
X143303836Y-63085542D01*
X143170208Y-63195208D01*
X143060542Y-63328836D01*
X142979053Y-63481291D01*
X142928872Y-63646715D01*
X142911928Y-63818750D01*
X142127000Y-63818750D01*
X142127000Y-61052606D01*
X143029606Y-60150000D01*
X148511928Y-60150000D01*
X148511928Y-61850000D01*
X148524188Y-61974482D01*
X148560498Y-62094180D01*
X148619463Y-62204494D01*
X148698815Y-62301185D01*
X148795506Y-62380537D01*
X148905820Y-62439502D01*
X148978380Y-62461513D01*
X148846525Y-62593368D01*
X148684010Y-62836589D01*
X148572068Y-63106842D01*
X148515000Y-63393740D01*
X148515000Y-63686260D01*
X148572068Y-63973158D01*
X148684010Y-64243411D01*
X148846525Y-64486632D01*
X149053368Y-64693475D01*
X149227760Y-64810000D01*
X149053368Y-64926525D01*
X148846525Y-65133368D01*
X148684010Y-65376589D01*
X148572068Y-65646842D01*
X148515000Y-65933740D01*
X148515000Y-66226260D01*
X148572068Y-66513158D01*
X148684010Y-66783411D01*
X148846525Y-67026632D01*
X149053368Y-67233475D01*
X149235534Y-67355195D01*
X149118645Y-67424822D01*
X148902412Y-67619731D01*
X148728359Y-67853080D01*
X148603175Y-68115901D01*
X148558524Y-68263110D01*
X148679845Y-68493000D01*
X149873000Y-68493000D01*
X149873000Y-68473000D01*
X150127000Y-68473000D01*
X150127000Y-68493000D01*
X151320155Y-68493000D01*
X151441476Y-68263110D01*
X151396825Y-68115901D01*
X151271641Y-67853080D01*
X151097588Y-67619731D01*
X150881355Y-67424822D01*
X150764466Y-67355195D01*
X150946632Y-67233475D01*
X151153475Y-67026632D01*
X151315990Y-66783411D01*
X151427932Y-66513158D01*
X151485000Y-66226260D01*
X151485000Y-65933740D01*
X151427932Y-65646842D01*
X151315990Y-65376589D01*
X151153475Y-65133368D01*
X150946632Y-64926525D01*
X150772240Y-64810000D01*
X150946632Y-64693475D01*
X151153475Y-64486632D01*
X151315990Y-64243411D01*
X151427932Y-63973158D01*
X151485000Y-63686260D01*
X151485000Y-63393740D01*
X151427932Y-63106842D01*
X151315990Y-62836589D01*
X151153475Y-62593368D01*
X151021620Y-62461513D01*
X151094180Y-62439502D01*
X151204494Y-62380537D01*
X151301185Y-62301185D01*
X151380537Y-62204494D01*
X151439502Y-62094180D01*
X151475812Y-61974482D01*
X151488072Y-61850000D01*
X151488072Y-60150000D01*
X151475812Y-60025518D01*
X151439502Y-59905820D01*
X151380537Y-59795506D01*
X151301185Y-59698815D01*
X151204494Y-59619463D01*
X151094180Y-59560498D01*
X150974482Y-59524188D01*
X150850000Y-59511928D01*
X149150000Y-59511928D01*
X149025518Y-59524188D01*
X148905820Y-59560498D01*
X148795506Y-59619463D01*
X148698815Y-59698815D01*
X148619463Y-59795506D01*
X148560498Y-59905820D01*
X148524188Y-60025518D01*
X148511928Y-60150000D01*
X143029606Y-60150000D01*
X147519606Y-55660000D01*
X154340000Y-55660000D01*
X154340001Y-74340000D01*
G04 #@! TO.N,GND1*
G36*
X135873000Y-61052606D02*
G01*
X135873000Y-68947394D01*
X130272394Y-74548000D01*
X105452000Y-74548000D01*
X105452000Y-72624130D01*
X106865475Y-72624130D01*
X107040491Y-72955867D01*
X107442168Y-73162437D01*
X107876428Y-73286674D01*
X108326581Y-73323804D01*
X108775328Y-73272400D01*
X109205424Y-73134438D01*
X109539509Y-72955867D01*
X109714525Y-72624130D01*
X108290000Y-71199605D01*
X106865475Y-72624130D01*
X105452000Y-72624130D01*
X105452000Y-71056581D01*
X105986196Y-71056581D01*
X106037600Y-71505328D01*
X106175562Y-71935424D01*
X106354133Y-72269509D01*
X106685870Y-72444525D01*
X108110395Y-71020000D01*
X108469605Y-71020000D01*
X109894130Y-72444525D01*
X110225867Y-72269509D01*
X110432437Y-71867832D01*
X110556674Y-71433572D01*
X110593804Y-70983419D01*
X110587113Y-70925000D01*
X111661928Y-70925000D01*
X111674188Y-71049482D01*
X111710498Y-71169180D01*
X111769463Y-71279494D01*
X111848815Y-71376185D01*
X111945506Y-71455537D01*
X112055820Y-71514502D01*
X112175518Y-71550812D01*
X112300000Y-71563072D01*
X112714250Y-71560000D01*
X112873000Y-71401250D01*
X112873000Y-70564500D01*
X113127000Y-70564500D01*
X113127000Y-71401250D01*
X113285750Y-71560000D01*
X113700000Y-71563072D01*
X113824482Y-71550812D01*
X113944180Y-71514502D01*
X114054494Y-71455537D01*
X114151185Y-71376185D01*
X114230537Y-71279494D01*
X114289502Y-71169180D01*
X114325812Y-71049482D01*
X114338072Y-70925000D01*
X114335000Y-70723250D01*
X114176250Y-70564500D01*
X113127000Y-70564500D01*
X112873000Y-70564500D01*
X111823750Y-70564500D01*
X111665000Y-70723250D01*
X111661928Y-70925000D01*
X110587113Y-70925000D01*
X110542400Y-70534672D01*
X110404438Y-70104576D01*
X110225867Y-69770491D01*
X109894130Y-69595475D01*
X108469605Y-71020000D01*
X108110395Y-71020000D01*
X106685870Y-69595475D01*
X106354133Y-69770491D01*
X106147563Y-70172168D01*
X106023326Y-70606428D01*
X105986196Y-71056581D01*
X105452000Y-71056581D01*
X105452000Y-69415870D01*
X106865475Y-69415870D01*
X108290000Y-70840395D01*
X109714525Y-69415870D01*
X109539509Y-69084133D01*
X109137832Y-68877563D01*
X108703572Y-68753326D01*
X108253419Y-68716196D01*
X107804672Y-68767600D01*
X107374576Y-68905562D01*
X107040491Y-69084133D01*
X106865475Y-69415870D01*
X105452000Y-69415870D01*
X105452000Y-66323919D01*
X109646489Y-66323919D01*
X109686918Y-66586555D01*
X109777807Y-66836258D01*
X109833530Y-66940509D01*
X110068727Y-67001668D01*
X110820395Y-66250000D01*
X110068727Y-65498332D01*
X109833530Y-65559491D01*
X109721232Y-65800326D01*
X109658076Y-66058441D01*
X109646489Y-66323919D01*
X105452000Y-66323919D01*
X105452000Y-63637621D01*
X109859000Y-63637621D01*
X109859000Y-63862379D01*
X109902848Y-64082817D01*
X109988859Y-64290466D01*
X110113727Y-64477345D01*
X110272655Y-64636273D01*
X110459534Y-64761141D01*
X110667183Y-64847152D01*
X110887621Y-64891000D01*
X111112379Y-64891000D01*
X111332817Y-64847152D01*
X111540466Y-64761141D01*
X111727345Y-64636273D01*
X111886273Y-64477345D01*
X112000000Y-64307140D01*
X112113727Y-64477345D01*
X112272655Y-64636273D01*
X112459534Y-64761141D01*
X112667183Y-64847152D01*
X112887621Y-64891000D01*
X113112379Y-64891000D01*
X113332817Y-64847152D01*
X113540466Y-64761141D01*
X113727345Y-64636273D01*
X113886273Y-64477345D01*
X113948001Y-64384963D01*
X113948000Y-65176906D01*
X113878196Y-65139595D01*
X113797707Y-65115178D01*
X113714000Y-65106934D01*
X112286000Y-65106934D01*
X112202293Y-65115178D01*
X112121804Y-65139595D01*
X112047624Y-65179245D01*
X111982605Y-65232605D01*
X111944803Y-65278667D01*
X111868264Y-65202128D01*
X111751667Y-65318725D01*
X111690509Y-65083530D01*
X111449674Y-64971232D01*
X111191559Y-64908076D01*
X110926081Y-64896489D01*
X110663445Y-64936918D01*
X110413742Y-65027807D01*
X110309491Y-65083530D01*
X110248332Y-65318727D01*
X111000000Y-66070395D01*
X111014143Y-66056253D01*
X111193748Y-66235858D01*
X111179605Y-66250000D01*
X111193748Y-66264143D01*
X111014143Y-66443748D01*
X111000000Y-66429605D01*
X110248332Y-67181273D01*
X110309491Y-67416470D01*
X110550326Y-67528768D01*
X110808441Y-67591924D01*
X111073919Y-67603511D01*
X111336555Y-67563082D01*
X111586258Y-67472193D01*
X111690509Y-67416470D01*
X111751667Y-67181275D01*
X111868264Y-67297872D01*
X111944803Y-67221333D01*
X111982605Y-67267395D01*
X112047624Y-67320755D01*
X112121804Y-67360405D01*
X112202293Y-67384822D01*
X112286000Y-67393066D01*
X113714000Y-67393066D01*
X113797707Y-67384822D01*
X113878196Y-67360405D01*
X113952376Y-67320755D01*
X114017395Y-67267395D01*
X114070755Y-67202376D01*
X114110405Y-67128196D01*
X114112066Y-67122719D01*
X114128856Y-67136498D01*
X114179023Y-67186665D01*
X114072819Y-67257628D01*
X113957628Y-67372819D01*
X113867123Y-67508269D01*
X113804782Y-67658773D01*
X113789131Y-67737454D01*
X113713726Y-67697149D01*
X113587510Y-67658862D01*
X113456250Y-67645934D01*
X112543750Y-67645934D01*
X112412490Y-67658862D01*
X112286274Y-67697149D01*
X112169953Y-67759324D01*
X112067997Y-67842997D01*
X111984324Y-67944953D01*
X111922149Y-68061274D01*
X111883862Y-68187490D01*
X111870934Y-68318750D01*
X111870934Y-68806250D01*
X111883862Y-68937510D01*
X111922149Y-69063726D01*
X111984324Y-69180047D01*
X112067997Y-69282003D01*
X112134545Y-69336617D01*
X112055820Y-69360498D01*
X111945506Y-69419463D01*
X111848815Y-69498815D01*
X111769463Y-69595506D01*
X111710498Y-69705820D01*
X111674188Y-69825518D01*
X111661928Y-69950000D01*
X111665000Y-70151750D01*
X111823750Y-70310500D01*
X112873000Y-70310500D01*
X112873000Y-70290500D01*
X113127000Y-70290500D01*
X113127000Y-70310500D01*
X114176250Y-70310500D01*
X114335000Y-70151750D01*
X114338072Y-69950000D01*
X114325812Y-69825518D01*
X114289502Y-69705820D01*
X114230537Y-69595506D01*
X114151185Y-69498815D01*
X114054494Y-69419463D01*
X113944180Y-69360498D01*
X113865455Y-69336617D01*
X113932003Y-69282003D01*
X113966545Y-69239914D01*
X113970745Y-69239500D01*
X113970752Y-69239500D01*
X114070215Y-69229704D01*
X114197830Y-69190992D01*
X114315441Y-69128128D01*
X114418527Y-69043527D01*
X114439726Y-69017696D01*
X114742582Y-68714840D01*
X114841227Y-68695218D01*
X114991731Y-68632877D01*
X115127181Y-68542372D01*
X115242372Y-68427181D01*
X115248001Y-68418757D01*
X115248000Y-69882447D01*
X115157628Y-69972819D01*
X115067123Y-70108269D01*
X115004782Y-70258773D01*
X114973000Y-70418548D01*
X114973000Y-70581452D01*
X115004782Y-70741227D01*
X115067123Y-70891731D01*
X115157628Y-71027181D01*
X115272819Y-71142372D01*
X115408269Y-71232877D01*
X115558773Y-71295218D01*
X115718548Y-71327000D01*
X115881452Y-71327000D01*
X116041227Y-71295218D01*
X116191731Y-71232877D01*
X116327181Y-71142372D01*
X116442372Y-71027181D01*
X116532877Y-70891731D01*
X116595218Y-70741227D01*
X116627000Y-70581452D01*
X116627000Y-70418548D01*
X116595218Y-70258773D01*
X116532877Y-70108269D01*
X116442372Y-69972819D01*
X116352000Y-69882447D01*
X116352000Y-68054106D01*
X116354670Y-68026998D01*
X116344012Y-67918787D01*
X116312448Y-67814735D01*
X116261191Y-67718840D01*
X116209492Y-67655844D01*
X116209491Y-67655843D01*
X116192211Y-67634787D01*
X116171154Y-67617506D01*
X115052000Y-66498354D01*
X115052000Y-65818758D01*
X115057628Y-65827181D01*
X115172819Y-65942372D01*
X115308269Y-66032877D01*
X115458773Y-66095218D01*
X115618548Y-66127000D01*
X115746355Y-66127000D01*
X115990508Y-66371154D01*
X116007789Y-66392211D01*
X116091842Y-66461191D01*
X116187737Y-66512448D01*
X116291789Y-66544012D01*
X116372891Y-66552000D01*
X116372901Y-66552000D01*
X116399999Y-66554669D01*
X116405573Y-66554120D01*
X116408862Y-66587510D01*
X116447149Y-66713726D01*
X116509324Y-66830047D01*
X116592997Y-66932003D01*
X116694953Y-67015676D01*
X116811274Y-67077851D01*
X116937490Y-67116138D01*
X117068750Y-67129066D01*
X117556250Y-67129066D01*
X117687510Y-67116138D01*
X117813726Y-67077851D01*
X117930047Y-67015676D01*
X118032003Y-66932003D01*
X118086617Y-66865455D01*
X118110498Y-66944180D01*
X118169463Y-67054494D01*
X118248815Y-67151185D01*
X118345506Y-67230537D01*
X118455820Y-67289502D01*
X118575518Y-67325812D01*
X118700000Y-67338072D01*
X118901750Y-67335000D01*
X119060500Y-67176250D01*
X119060500Y-66127000D01*
X119040500Y-66127000D01*
X119040500Y-65873000D01*
X119060500Y-65873000D01*
X119060500Y-64823750D01*
X119314500Y-64823750D01*
X119314500Y-65873000D01*
X119334500Y-65873000D01*
X119334500Y-66127000D01*
X119314500Y-66127000D01*
X119314500Y-67176250D01*
X119473250Y-67335000D01*
X119675000Y-67338072D01*
X119799482Y-67325812D01*
X119919180Y-67289502D01*
X120029494Y-67230537D01*
X120126185Y-67151185D01*
X120203423Y-67057070D01*
X120342507Y-67196155D01*
X120359788Y-67217212D01*
X120380844Y-67234492D01*
X120380845Y-67234493D01*
X120443841Y-67286192D01*
X120539736Y-67337449D01*
X120643788Y-67369013D01*
X120751999Y-67379671D01*
X120779108Y-67377001D01*
X127647893Y-67377001D01*
X127674999Y-67379671D01*
X127702105Y-67377001D01*
X127702108Y-67377001D01*
X127783210Y-67369013D01*
X127887262Y-67337449D01*
X127983157Y-67286192D01*
X128067210Y-67217212D01*
X128084499Y-67196145D01*
X128853645Y-66427000D01*
X128981452Y-66427000D01*
X128991506Y-66425000D01*
X132911928Y-66425000D01*
X132924188Y-66549482D01*
X132960498Y-66669180D01*
X133019463Y-66779494D01*
X133098815Y-66876185D01*
X133195506Y-66955537D01*
X133305820Y-67014502D01*
X133425518Y-67050812D01*
X133550000Y-67063072D01*
X133964250Y-67060000D01*
X134123000Y-66901250D01*
X134123000Y-66064500D01*
X134377000Y-66064500D01*
X134377000Y-66901250D01*
X134535750Y-67060000D01*
X134950000Y-67063072D01*
X135074482Y-67050812D01*
X135194180Y-67014502D01*
X135304494Y-66955537D01*
X135401185Y-66876185D01*
X135480537Y-66779494D01*
X135539502Y-66669180D01*
X135575812Y-66549482D01*
X135588072Y-66425000D01*
X135585000Y-66223250D01*
X135426250Y-66064500D01*
X134377000Y-66064500D01*
X134123000Y-66064500D01*
X133073750Y-66064500D01*
X132915000Y-66223250D01*
X132911928Y-66425000D01*
X128991506Y-66425000D01*
X129141227Y-66395218D01*
X129291731Y-66332877D01*
X129427181Y-66242372D01*
X129542372Y-66127181D01*
X129632877Y-65991731D01*
X129695218Y-65841227D01*
X129727000Y-65681452D01*
X129727000Y-65518548D01*
X129695218Y-65358773D01*
X129632877Y-65208269D01*
X129542372Y-65072819D01*
X129427181Y-64957628D01*
X129291731Y-64867123D01*
X129141227Y-64804782D01*
X128981452Y-64773000D01*
X128818548Y-64773000D01*
X128658773Y-64804782D01*
X128508269Y-64867123D01*
X128372819Y-64957628D01*
X128257628Y-65072819D01*
X128167123Y-65208269D01*
X128104782Y-65358773D01*
X128073000Y-65518548D01*
X128073000Y-65646355D01*
X127446355Y-66273001D01*
X121908789Y-66273001D01*
X121914840Y-66242582D01*
X124392706Y-63764717D01*
X124418526Y-63743527D01*
X124439718Y-63717705D01*
X124439724Y-63717699D01*
X124503128Y-63640441D01*
X124565992Y-63522830D01*
X124604704Y-63395215D01*
X124610363Y-63337757D01*
X124614500Y-63295752D01*
X124614500Y-63295745D01*
X124617774Y-63262500D01*
X124614500Y-63229255D01*
X124614500Y-62613933D01*
X127084924Y-62613933D01*
X127084924Y-62776837D01*
X127116706Y-62936612D01*
X127179047Y-63087116D01*
X127269552Y-63222566D01*
X127384743Y-63337757D01*
X127520193Y-63428262D01*
X127670697Y-63490603D01*
X127830472Y-63522385D01*
X127958279Y-63522385D01*
X128807047Y-64371154D01*
X128824328Y-64392211D01*
X128845384Y-64409491D01*
X128908380Y-64461191D01*
X128916399Y-64465477D01*
X128957628Y-64527181D01*
X129072819Y-64642372D01*
X129208269Y-64732877D01*
X129358773Y-64795218D01*
X129518548Y-64827000D01*
X129681452Y-64827000D01*
X129841227Y-64795218D01*
X129991731Y-64732877D01*
X130127181Y-64642372D01*
X130242372Y-64527181D01*
X130332877Y-64391731D01*
X130395218Y-64241227D01*
X130427000Y-64081452D01*
X130427000Y-63918548D01*
X130395218Y-63758773D01*
X130332877Y-63608269D01*
X130242372Y-63472819D01*
X130127181Y-63357628D01*
X129991731Y-63267123D01*
X129841227Y-63204782D01*
X129681452Y-63173000D01*
X129518548Y-63173000D01*
X129358773Y-63204782D01*
X129247894Y-63250710D01*
X129010732Y-63013548D01*
X131828000Y-63013548D01*
X131828000Y-63176452D01*
X131859782Y-63336227D01*
X131922123Y-63486731D01*
X132012628Y-63622181D01*
X132127819Y-63737372D01*
X132263269Y-63827877D01*
X132413773Y-63890218D01*
X132512418Y-63909840D01*
X133120278Y-64517701D01*
X133141473Y-64543527D01*
X133167299Y-64564722D01*
X133167301Y-64564724D01*
X133176888Y-64572592D01*
X133234324Y-64680047D01*
X133317997Y-64782003D01*
X133384545Y-64836617D01*
X133305820Y-64860498D01*
X133195506Y-64919463D01*
X133098815Y-64998815D01*
X133019463Y-65095506D01*
X132960498Y-65205820D01*
X132924188Y-65325518D01*
X132911928Y-65450000D01*
X132915000Y-65651750D01*
X133073750Y-65810500D01*
X134123000Y-65810500D01*
X134123000Y-65790500D01*
X134377000Y-65790500D01*
X134377000Y-65810500D01*
X135426250Y-65810500D01*
X135585000Y-65651750D01*
X135588072Y-65450000D01*
X135575812Y-65325518D01*
X135539502Y-65205820D01*
X135480537Y-65095506D01*
X135401185Y-64998815D01*
X135304494Y-64919463D01*
X135194180Y-64860498D01*
X135115455Y-64836617D01*
X135182003Y-64782003D01*
X135265676Y-64680047D01*
X135327851Y-64563726D01*
X135366138Y-64437510D01*
X135379066Y-64306250D01*
X135379066Y-63818750D01*
X135366138Y-63687490D01*
X135327851Y-63561274D01*
X135265676Y-63444953D01*
X135182003Y-63342997D01*
X135080047Y-63259324D01*
X134963726Y-63197149D01*
X134837510Y-63158862D01*
X134706250Y-63145934D01*
X133793750Y-63145934D01*
X133675048Y-63157625D01*
X133469840Y-62952418D01*
X133450218Y-62853773D01*
X133387877Y-62703269D01*
X133297372Y-62567819D01*
X133182181Y-62452628D01*
X133046731Y-62362123D01*
X132896227Y-62299782D01*
X132736452Y-62268000D01*
X132573548Y-62268000D01*
X132413773Y-62299782D01*
X132263269Y-62362123D01*
X132127819Y-62452628D01*
X132012628Y-62567819D01*
X131922123Y-62703269D01*
X131859782Y-62853773D01*
X131828000Y-63013548D01*
X129010732Y-63013548D01*
X128738924Y-62741740D01*
X128738924Y-62613933D01*
X128707142Y-62454158D01*
X128644801Y-62303654D01*
X128554296Y-62168204D01*
X128439105Y-62053013D01*
X128303655Y-61962508D01*
X128153151Y-61900167D01*
X127993376Y-61868385D01*
X127830472Y-61868385D01*
X127670697Y-61900167D01*
X127520193Y-61962508D01*
X127384743Y-62053013D01*
X127269552Y-62168204D01*
X127179047Y-62303654D01*
X127116706Y-62454158D01*
X127084924Y-62613933D01*
X124614500Y-62613933D01*
X124614500Y-60216884D01*
X124657003Y-60182003D01*
X124740676Y-60080047D01*
X124802851Y-59963726D01*
X124841138Y-59837510D01*
X124854066Y-59706250D01*
X124854066Y-58793750D01*
X124841138Y-58662490D01*
X124802851Y-58536274D01*
X124740676Y-58419953D01*
X124657003Y-58317997D01*
X124614500Y-58283116D01*
X124614500Y-57767305D01*
X124617547Y-57765676D01*
X124719503Y-57682003D01*
X124803176Y-57580047D01*
X124865351Y-57463726D01*
X124903638Y-57337510D01*
X124916566Y-57206250D01*
X124916566Y-56293750D01*
X124903638Y-56162490D01*
X124865351Y-56036274D01*
X124803176Y-55919953D01*
X124719503Y-55817997D01*
X124617547Y-55734324D01*
X124501226Y-55672149D01*
X124375010Y-55633862D01*
X124243750Y-55620934D01*
X123756250Y-55620934D01*
X123624990Y-55633862D01*
X123498774Y-55672149D01*
X123382453Y-55734324D01*
X123280497Y-55817997D01*
X123196824Y-55919953D01*
X123134649Y-56036274D01*
X123096362Y-56162490D01*
X123083434Y-56293750D01*
X123083434Y-57206250D01*
X123096362Y-57337510D01*
X123134649Y-57463726D01*
X123196824Y-57580047D01*
X123260501Y-57657637D01*
X123260500Y-58283115D01*
X123217997Y-58317997D01*
X123134324Y-58419953D01*
X123072149Y-58536274D01*
X123033862Y-58662490D01*
X123020934Y-58793750D01*
X123020934Y-59706250D01*
X123033862Y-59837510D01*
X123072149Y-59963726D01*
X123134324Y-60080047D01*
X123217997Y-60182003D01*
X123260501Y-60216885D01*
X123260500Y-62982077D01*
X122118526Y-64124051D01*
X122127000Y-64081452D01*
X122127000Y-63918548D01*
X122095218Y-63758773D01*
X122032877Y-63608269D01*
X121942372Y-63472819D01*
X121827181Y-63357628D01*
X121691731Y-63267123D01*
X121541227Y-63204782D01*
X121381452Y-63173000D01*
X121218548Y-63173000D01*
X121058773Y-63204782D01*
X120908269Y-63267123D01*
X120772819Y-63357628D01*
X120657628Y-63472819D01*
X120567123Y-63608269D01*
X120504782Y-63758773D01*
X120473000Y-63918548D01*
X120473000Y-64046355D01*
X120003855Y-64515501D01*
X119982788Y-64532790D01*
X119913808Y-64616843D01*
X119871483Y-64696029D01*
X119799482Y-64674188D01*
X119675000Y-64661928D01*
X119473250Y-64665000D01*
X119314500Y-64823750D01*
X119060500Y-64823750D01*
X118901750Y-64665000D01*
X118700000Y-64661928D01*
X118575518Y-64674188D01*
X118455820Y-64710498D01*
X118345506Y-64769463D01*
X118248815Y-64848815D01*
X118169463Y-64945506D01*
X118110498Y-65055820D01*
X118086617Y-65134545D01*
X118032003Y-65067997D01*
X117930047Y-64984324D01*
X117813726Y-64922149D01*
X117687510Y-64883862D01*
X117556250Y-64870934D01*
X117068750Y-64870934D01*
X116937490Y-64883862D01*
X116811274Y-64922149D01*
X116694953Y-64984324D01*
X116592997Y-65067997D01*
X116515771Y-65162097D01*
X116495218Y-65058773D01*
X116432877Y-64908269D01*
X116342372Y-64772819D01*
X116227181Y-64657628D01*
X116091731Y-64567123D01*
X115941227Y-64504782D01*
X115781452Y-64473000D01*
X115618548Y-64473000D01*
X115458773Y-64504782D01*
X115308269Y-64567123D01*
X115172819Y-64657628D01*
X115057628Y-64772819D01*
X115052000Y-64781242D01*
X115052000Y-62917553D01*
X115142372Y-62827181D01*
X115232877Y-62691731D01*
X115295218Y-62541227D01*
X115327000Y-62381452D01*
X115327000Y-62218548D01*
X115295218Y-62058773D01*
X115232877Y-61908269D01*
X115142372Y-61772819D01*
X115027181Y-61657628D01*
X114891731Y-61567123D01*
X114741227Y-61504782D01*
X114581452Y-61473000D01*
X114453645Y-61473000D01*
X114379066Y-61398421D01*
X114379066Y-60943750D01*
X114366138Y-60812490D01*
X114327851Y-60686274D01*
X114265676Y-60569953D01*
X114182003Y-60467997D01*
X114115455Y-60413383D01*
X114194180Y-60389502D01*
X114304494Y-60330537D01*
X114401185Y-60251185D01*
X114480537Y-60154494D01*
X114539502Y-60044180D01*
X114575812Y-59924482D01*
X114588072Y-59800000D01*
X114585000Y-59598250D01*
X114426250Y-59439500D01*
X113377000Y-59439500D01*
X113377000Y-59459500D01*
X113123000Y-59459500D01*
X113123000Y-59439500D01*
X112073750Y-59439500D01*
X111915000Y-59598250D01*
X111911928Y-59800000D01*
X111924188Y-59924482D01*
X111960498Y-60044180D01*
X112019463Y-60154494D01*
X112098815Y-60251185D01*
X112195506Y-60330537D01*
X112305820Y-60389502D01*
X112384545Y-60413383D01*
X112317997Y-60467997D01*
X112234324Y-60569953D01*
X112172149Y-60686274D01*
X112133862Y-60812490D01*
X112120934Y-60943750D01*
X112120934Y-61431250D01*
X112133862Y-61562510D01*
X112172149Y-61688726D01*
X112234324Y-61805047D01*
X112317997Y-61907003D01*
X112419953Y-61990676D01*
X112536274Y-62052851D01*
X112662490Y-62091138D01*
X112793750Y-62104066D01*
X113523421Y-62104066D01*
X113673000Y-62253645D01*
X113673000Y-62381452D01*
X113704782Y-62541227D01*
X113767123Y-62691731D01*
X113857628Y-62827181D01*
X113948001Y-62917554D01*
X113948001Y-63115038D01*
X113886273Y-63022655D01*
X113727345Y-62863727D01*
X113540466Y-62738859D01*
X113332817Y-62652848D01*
X113112379Y-62609000D01*
X112887621Y-62609000D01*
X112667183Y-62652848D01*
X112459534Y-62738859D01*
X112272655Y-62863727D01*
X112113727Y-63022655D01*
X112000000Y-63192860D01*
X111886273Y-63022655D01*
X111727345Y-62863727D01*
X111540466Y-62738859D01*
X111332817Y-62652848D01*
X111112379Y-62609000D01*
X110887621Y-62609000D01*
X110667183Y-62652848D01*
X110459534Y-62738859D01*
X110272655Y-62863727D01*
X110113727Y-63022655D01*
X109988859Y-63209534D01*
X109902848Y-63417183D01*
X109859000Y-63637621D01*
X105452000Y-63637621D01*
X105452000Y-60584130D01*
X106865475Y-60584130D01*
X107040491Y-60915867D01*
X107442168Y-61122437D01*
X107876428Y-61246674D01*
X108326581Y-61283804D01*
X108775328Y-61232400D01*
X109205424Y-61094438D01*
X109539509Y-60915867D01*
X109714525Y-60584130D01*
X108290000Y-59159605D01*
X106865475Y-60584130D01*
X105452000Y-60584130D01*
X105452000Y-59016581D01*
X105986196Y-59016581D01*
X106037600Y-59465328D01*
X106175562Y-59895424D01*
X106354133Y-60229509D01*
X106685870Y-60404525D01*
X108110395Y-58980000D01*
X108469605Y-58980000D01*
X109894130Y-60404525D01*
X110225867Y-60229509D01*
X110432437Y-59827832D01*
X110556674Y-59393572D01*
X110593804Y-58943419D01*
X110580240Y-58825000D01*
X111911928Y-58825000D01*
X111915000Y-59026750D01*
X112073750Y-59185500D01*
X113123000Y-59185500D01*
X113123000Y-58348750D01*
X113377000Y-58348750D01*
X113377000Y-59185500D01*
X114426250Y-59185500D01*
X114493202Y-59118548D01*
X119873000Y-59118548D01*
X119873000Y-59281452D01*
X119904782Y-59441227D01*
X119967123Y-59591731D01*
X120057628Y-59727181D01*
X120172819Y-59842372D01*
X120308269Y-59932877D01*
X120458773Y-59995218D01*
X120618548Y-60027000D01*
X120781452Y-60027000D01*
X120941227Y-59995218D01*
X121091731Y-59932877D01*
X121171602Y-59879509D01*
X121197149Y-59963726D01*
X121259324Y-60080047D01*
X121342997Y-60182003D01*
X121444953Y-60265676D01*
X121561274Y-60327851D01*
X121687490Y-60366138D01*
X121818750Y-60379066D01*
X122306250Y-60379066D01*
X122437510Y-60366138D01*
X122563726Y-60327851D01*
X122680047Y-60265676D01*
X122782003Y-60182003D01*
X122865676Y-60080047D01*
X122927851Y-59963726D01*
X122966138Y-59837510D01*
X122979066Y-59706250D01*
X122979066Y-58793750D01*
X122966138Y-58662490D01*
X122927851Y-58536274D01*
X122865676Y-58419953D01*
X122782003Y-58317997D01*
X122680047Y-58234324D01*
X122563726Y-58172149D01*
X122437510Y-58133862D01*
X122306250Y-58120934D01*
X121818750Y-58120934D01*
X121687490Y-58133862D01*
X121561274Y-58172149D01*
X121444953Y-58234324D01*
X121342997Y-58317997D01*
X121259324Y-58419953D01*
X121204244Y-58523000D01*
X121175357Y-58523000D01*
X121091731Y-58467123D01*
X120941227Y-58404782D01*
X120781452Y-58373000D01*
X120618548Y-58373000D01*
X120458773Y-58404782D01*
X120308269Y-58467123D01*
X120172819Y-58557628D01*
X120057628Y-58672819D01*
X119967123Y-58808269D01*
X119904782Y-58958773D01*
X119873000Y-59118548D01*
X114493202Y-59118548D01*
X114585000Y-59026750D01*
X114588072Y-58825000D01*
X114575812Y-58700518D01*
X114539502Y-58580820D01*
X114480537Y-58470506D01*
X114401185Y-58373815D01*
X114304494Y-58294463D01*
X114194180Y-58235498D01*
X114074482Y-58199188D01*
X113950000Y-58186928D01*
X113535750Y-58190000D01*
X113377000Y-58348750D01*
X113123000Y-58348750D01*
X112964250Y-58190000D01*
X112550000Y-58186928D01*
X112425518Y-58199188D01*
X112305820Y-58235498D01*
X112195506Y-58294463D01*
X112098815Y-58373815D01*
X112019463Y-58470506D01*
X111960498Y-58580820D01*
X111924188Y-58700518D01*
X111911928Y-58825000D01*
X110580240Y-58825000D01*
X110542400Y-58494672D01*
X110404438Y-58064576D01*
X110225867Y-57730491D01*
X109894130Y-57555475D01*
X108469605Y-58980000D01*
X108110395Y-58980000D01*
X106685870Y-57555475D01*
X106354133Y-57730491D01*
X106147563Y-58132168D01*
X106023326Y-58566428D01*
X105986196Y-59016581D01*
X105452000Y-59016581D01*
X105452000Y-57375870D01*
X106865475Y-57375870D01*
X108290000Y-58800395D01*
X109714525Y-57375870D01*
X109539509Y-57044133D01*
X109137832Y-56837563D01*
X108721826Y-56718548D01*
X119873000Y-56718548D01*
X119873000Y-56881452D01*
X119904782Y-57041227D01*
X119967123Y-57191731D01*
X120057628Y-57327181D01*
X120172819Y-57442372D01*
X120308269Y-57532877D01*
X120458773Y-57595218D01*
X120618548Y-57627000D01*
X120781452Y-57627000D01*
X120941227Y-57595218D01*
X121091731Y-57532877D01*
X121227181Y-57442372D01*
X121242553Y-57427000D01*
X121248508Y-57427000D01*
X121259649Y-57463726D01*
X121321824Y-57580047D01*
X121405497Y-57682003D01*
X121507453Y-57765676D01*
X121623774Y-57827851D01*
X121749990Y-57866138D01*
X121881250Y-57879066D01*
X122368750Y-57879066D01*
X122500010Y-57866138D01*
X122626226Y-57827851D01*
X122742547Y-57765676D01*
X122844503Y-57682003D01*
X122928176Y-57580047D01*
X122990351Y-57463726D01*
X123028638Y-57337510D01*
X123041566Y-57206250D01*
X123041566Y-56293750D01*
X123028638Y-56162490D01*
X122990351Y-56036274D01*
X122928176Y-55919953D01*
X122844503Y-55817997D01*
X122742547Y-55734324D01*
X122626226Y-55672149D01*
X122500010Y-55633862D01*
X122368750Y-55620934D01*
X121881250Y-55620934D01*
X121749990Y-55633862D01*
X121623774Y-55672149D01*
X121507453Y-55734324D01*
X121405497Y-55817997D01*
X121321824Y-55919953D01*
X121259649Y-56036274D01*
X121248508Y-56073000D01*
X121100527Y-56073000D01*
X121091731Y-56067123D01*
X120941227Y-56004782D01*
X120781452Y-55973000D01*
X120618548Y-55973000D01*
X120458773Y-56004782D01*
X120308269Y-56067123D01*
X120172819Y-56157628D01*
X120057628Y-56272819D01*
X119967123Y-56408269D01*
X119904782Y-56558773D01*
X119873000Y-56718548D01*
X108721826Y-56718548D01*
X108703572Y-56713326D01*
X108253419Y-56676196D01*
X107804672Y-56727600D01*
X107374576Y-56865562D01*
X107040491Y-57044133D01*
X106865475Y-57375870D01*
X105452000Y-57375870D01*
X105452000Y-55452000D01*
X130272394Y-55452000D01*
X135873000Y-61052606D01*
G37*
X135873000Y-61052606D02*
X135873000Y-68947394D01*
X130272394Y-74548000D01*
X105452000Y-74548000D01*
X105452000Y-72624130D01*
X106865475Y-72624130D01*
X107040491Y-72955867D01*
X107442168Y-73162437D01*
X107876428Y-73286674D01*
X108326581Y-73323804D01*
X108775328Y-73272400D01*
X109205424Y-73134438D01*
X109539509Y-72955867D01*
X109714525Y-72624130D01*
X108290000Y-71199605D01*
X106865475Y-72624130D01*
X105452000Y-72624130D01*
X105452000Y-71056581D01*
X105986196Y-71056581D01*
X106037600Y-71505328D01*
X106175562Y-71935424D01*
X106354133Y-72269509D01*
X106685870Y-72444525D01*
X108110395Y-71020000D01*
X108469605Y-71020000D01*
X109894130Y-72444525D01*
X110225867Y-72269509D01*
X110432437Y-71867832D01*
X110556674Y-71433572D01*
X110593804Y-70983419D01*
X110587113Y-70925000D01*
X111661928Y-70925000D01*
X111674188Y-71049482D01*
X111710498Y-71169180D01*
X111769463Y-71279494D01*
X111848815Y-71376185D01*
X111945506Y-71455537D01*
X112055820Y-71514502D01*
X112175518Y-71550812D01*
X112300000Y-71563072D01*
X112714250Y-71560000D01*
X112873000Y-71401250D01*
X112873000Y-70564500D01*
X113127000Y-70564500D01*
X113127000Y-71401250D01*
X113285750Y-71560000D01*
X113700000Y-71563072D01*
X113824482Y-71550812D01*
X113944180Y-71514502D01*
X114054494Y-71455537D01*
X114151185Y-71376185D01*
X114230537Y-71279494D01*
X114289502Y-71169180D01*
X114325812Y-71049482D01*
X114338072Y-70925000D01*
X114335000Y-70723250D01*
X114176250Y-70564500D01*
X113127000Y-70564500D01*
X112873000Y-70564500D01*
X111823750Y-70564500D01*
X111665000Y-70723250D01*
X111661928Y-70925000D01*
X110587113Y-70925000D01*
X110542400Y-70534672D01*
X110404438Y-70104576D01*
X110225867Y-69770491D01*
X109894130Y-69595475D01*
X108469605Y-71020000D01*
X108110395Y-71020000D01*
X106685870Y-69595475D01*
X106354133Y-69770491D01*
X106147563Y-70172168D01*
X106023326Y-70606428D01*
X105986196Y-71056581D01*
X105452000Y-71056581D01*
X105452000Y-69415870D01*
X106865475Y-69415870D01*
X108290000Y-70840395D01*
X109714525Y-69415870D01*
X109539509Y-69084133D01*
X109137832Y-68877563D01*
X108703572Y-68753326D01*
X108253419Y-68716196D01*
X107804672Y-68767600D01*
X107374576Y-68905562D01*
X107040491Y-69084133D01*
X106865475Y-69415870D01*
X105452000Y-69415870D01*
X105452000Y-66323919D01*
X109646489Y-66323919D01*
X109686918Y-66586555D01*
X109777807Y-66836258D01*
X109833530Y-66940509D01*
X110068727Y-67001668D01*
X110820395Y-66250000D01*
X110068727Y-65498332D01*
X109833530Y-65559491D01*
X109721232Y-65800326D01*
X109658076Y-66058441D01*
X109646489Y-66323919D01*
X105452000Y-66323919D01*
X105452000Y-63637621D01*
X109859000Y-63637621D01*
X109859000Y-63862379D01*
X109902848Y-64082817D01*
X109988859Y-64290466D01*
X110113727Y-64477345D01*
X110272655Y-64636273D01*
X110459534Y-64761141D01*
X110667183Y-64847152D01*
X110887621Y-64891000D01*
X111112379Y-64891000D01*
X111332817Y-64847152D01*
X111540466Y-64761141D01*
X111727345Y-64636273D01*
X111886273Y-64477345D01*
X112000000Y-64307140D01*
X112113727Y-64477345D01*
X112272655Y-64636273D01*
X112459534Y-64761141D01*
X112667183Y-64847152D01*
X112887621Y-64891000D01*
X113112379Y-64891000D01*
X113332817Y-64847152D01*
X113540466Y-64761141D01*
X113727345Y-64636273D01*
X113886273Y-64477345D01*
X113948001Y-64384963D01*
X113948000Y-65176906D01*
X113878196Y-65139595D01*
X113797707Y-65115178D01*
X113714000Y-65106934D01*
X112286000Y-65106934D01*
X112202293Y-65115178D01*
X112121804Y-65139595D01*
X112047624Y-65179245D01*
X111982605Y-65232605D01*
X111944803Y-65278667D01*
X111868264Y-65202128D01*
X111751667Y-65318725D01*
X111690509Y-65083530D01*
X111449674Y-64971232D01*
X111191559Y-64908076D01*
X110926081Y-64896489D01*
X110663445Y-64936918D01*
X110413742Y-65027807D01*
X110309491Y-65083530D01*
X110248332Y-65318727D01*
X111000000Y-66070395D01*
X111014143Y-66056253D01*
X111193748Y-66235858D01*
X111179605Y-66250000D01*
X111193748Y-66264143D01*
X111014143Y-66443748D01*
X111000000Y-66429605D01*
X110248332Y-67181273D01*
X110309491Y-67416470D01*
X110550326Y-67528768D01*
X110808441Y-67591924D01*
X111073919Y-67603511D01*
X111336555Y-67563082D01*
X111586258Y-67472193D01*
X111690509Y-67416470D01*
X111751667Y-67181275D01*
X111868264Y-67297872D01*
X111944803Y-67221333D01*
X111982605Y-67267395D01*
X112047624Y-67320755D01*
X112121804Y-67360405D01*
X112202293Y-67384822D01*
X112286000Y-67393066D01*
X113714000Y-67393066D01*
X113797707Y-67384822D01*
X113878196Y-67360405D01*
X113952376Y-67320755D01*
X114017395Y-67267395D01*
X114070755Y-67202376D01*
X114110405Y-67128196D01*
X114112066Y-67122719D01*
X114128856Y-67136498D01*
X114179023Y-67186665D01*
X114072819Y-67257628D01*
X113957628Y-67372819D01*
X113867123Y-67508269D01*
X113804782Y-67658773D01*
X113789131Y-67737454D01*
X113713726Y-67697149D01*
X113587510Y-67658862D01*
X113456250Y-67645934D01*
X112543750Y-67645934D01*
X112412490Y-67658862D01*
X112286274Y-67697149D01*
X112169953Y-67759324D01*
X112067997Y-67842997D01*
X111984324Y-67944953D01*
X111922149Y-68061274D01*
X111883862Y-68187490D01*
X111870934Y-68318750D01*
X111870934Y-68806250D01*
X111883862Y-68937510D01*
X111922149Y-69063726D01*
X111984324Y-69180047D01*
X112067997Y-69282003D01*
X112134545Y-69336617D01*
X112055820Y-69360498D01*
X111945506Y-69419463D01*
X111848815Y-69498815D01*
X111769463Y-69595506D01*
X111710498Y-69705820D01*
X111674188Y-69825518D01*
X111661928Y-69950000D01*
X111665000Y-70151750D01*
X111823750Y-70310500D01*
X112873000Y-70310500D01*
X112873000Y-70290500D01*
X113127000Y-70290500D01*
X113127000Y-70310500D01*
X114176250Y-70310500D01*
X114335000Y-70151750D01*
X114338072Y-69950000D01*
X114325812Y-69825518D01*
X114289502Y-69705820D01*
X114230537Y-69595506D01*
X114151185Y-69498815D01*
X114054494Y-69419463D01*
X113944180Y-69360498D01*
X113865455Y-69336617D01*
X113932003Y-69282003D01*
X113966545Y-69239914D01*
X113970745Y-69239500D01*
X113970752Y-69239500D01*
X114070215Y-69229704D01*
X114197830Y-69190992D01*
X114315441Y-69128128D01*
X114418527Y-69043527D01*
X114439726Y-69017696D01*
X114742582Y-68714840D01*
X114841227Y-68695218D01*
X114991731Y-68632877D01*
X115127181Y-68542372D01*
X115242372Y-68427181D01*
X115248001Y-68418757D01*
X115248000Y-69882447D01*
X115157628Y-69972819D01*
X115067123Y-70108269D01*
X115004782Y-70258773D01*
X114973000Y-70418548D01*
X114973000Y-70581452D01*
X115004782Y-70741227D01*
X115067123Y-70891731D01*
X115157628Y-71027181D01*
X115272819Y-71142372D01*
X115408269Y-71232877D01*
X115558773Y-71295218D01*
X115718548Y-71327000D01*
X115881452Y-71327000D01*
X116041227Y-71295218D01*
X116191731Y-71232877D01*
X116327181Y-71142372D01*
X116442372Y-71027181D01*
X116532877Y-70891731D01*
X116595218Y-70741227D01*
X116627000Y-70581452D01*
X116627000Y-70418548D01*
X116595218Y-70258773D01*
X116532877Y-70108269D01*
X116442372Y-69972819D01*
X116352000Y-69882447D01*
X116352000Y-68054106D01*
X116354670Y-68026998D01*
X116344012Y-67918787D01*
X116312448Y-67814735D01*
X116261191Y-67718840D01*
X116209492Y-67655844D01*
X116209491Y-67655843D01*
X116192211Y-67634787D01*
X116171154Y-67617506D01*
X115052000Y-66498354D01*
X115052000Y-65818758D01*
X115057628Y-65827181D01*
X115172819Y-65942372D01*
X115308269Y-66032877D01*
X115458773Y-66095218D01*
X115618548Y-66127000D01*
X115746355Y-66127000D01*
X115990508Y-66371154D01*
X116007789Y-66392211D01*
X116091842Y-66461191D01*
X116187737Y-66512448D01*
X116291789Y-66544012D01*
X116372891Y-66552000D01*
X116372901Y-66552000D01*
X116399999Y-66554669D01*
X116405573Y-66554120D01*
X116408862Y-66587510D01*
X116447149Y-66713726D01*
X116509324Y-66830047D01*
X116592997Y-66932003D01*
X116694953Y-67015676D01*
X116811274Y-67077851D01*
X116937490Y-67116138D01*
X117068750Y-67129066D01*
X117556250Y-67129066D01*
X117687510Y-67116138D01*
X117813726Y-67077851D01*
X117930047Y-67015676D01*
X118032003Y-66932003D01*
X118086617Y-66865455D01*
X118110498Y-66944180D01*
X118169463Y-67054494D01*
X118248815Y-67151185D01*
X118345506Y-67230537D01*
X118455820Y-67289502D01*
X118575518Y-67325812D01*
X118700000Y-67338072D01*
X118901750Y-67335000D01*
X119060500Y-67176250D01*
X119060500Y-66127000D01*
X119040500Y-66127000D01*
X119040500Y-65873000D01*
X119060500Y-65873000D01*
X119060500Y-64823750D01*
X119314500Y-64823750D01*
X119314500Y-65873000D01*
X119334500Y-65873000D01*
X119334500Y-66127000D01*
X119314500Y-66127000D01*
X119314500Y-67176250D01*
X119473250Y-67335000D01*
X119675000Y-67338072D01*
X119799482Y-67325812D01*
X119919180Y-67289502D01*
X120029494Y-67230537D01*
X120126185Y-67151185D01*
X120203423Y-67057070D01*
X120342507Y-67196155D01*
X120359788Y-67217212D01*
X120380844Y-67234492D01*
X120380845Y-67234493D01*
X120443841Y-67286192D01*
X120539736Y-67337449D01*
X120643788Y-67369013D01*
X120751999Y-67379671D01*
X120779108Y-67377001D01*
X127647893Y-67377001D01*
X127674999Y-67379671D01*
X127702105Y-67377001D01*
X127702108Y-67377001D01*
X127783210Y-67369013D01*
X127887262Y-67337449D01*
X127983157Y-67286192D01*
X128067210Y-67217212D01*
X128084499Y-67196145D01*
X128853645Y-66427000D01*
X128981452Y-66427000D01*
X128991506Y-66425000D01*
X132911928Y-66425000D01*
X132924188Y-66549482D01*
X132960498Y-66669180D01*
X133019463Y-66779494D01*
X133098815Y-66876185D01*
X133195506Y-66955537D01*
X133305820Y-67014502D01*
X133425518Y-67050812D01*
X133550000Y-67063072D01*
X133964250Y-67060000D01*
X134123000Y-66901250D01*
X134123000Y-66064500D01*
X134377000Y-66064500D01*
X134377000Y-66901250D01*
X134535750Y-67060000D01*
X134950000Y-67063072D01*
X135074482Y-67050812D01*
X135194180Y-67014502D01*
X135304494Y-66955537D01*
X135401185Y-66876185D01*
X135480537Y-66779494D01*
X135539502Y-66669180D01*
X135575812Y-66549482D01*
X135588072Y-66425000D01*
X135585000Y-66223250D01*
X135426250Y-66064500D01*
X134377000Y-66064500D01*
X134123000Y-66064500D01*
X133073750Y-66064500D01*
X132915000Y-66223250D01*
X132911928Y-66425000D01*
X128991506Y-66425000D01*
X129141227Y-66395218D01*
X129291731Y-66332877D01*
X129427181Y-66242372D01*
X129542372Y-66127181D01*
X129632877Y-65991731D01*
X129695218Y-65841227D01*
X129727000Y-65681452D01*
X129727000Y-65518548D01*
X129695218Y-65358773D01*
X129632877Y-65208269D01*
X129542372Y-65072819D01*
X129427181Y-64957628D01*
X129291731Y-64867123D01*
X129141227Y-64804782D01*
X128981452Y-64773000D01*
X128818548Y-64773000D01*
X128658773Y-64804782D01*
X128508269Y-64867123D01*
X128372819Y-64957628D01*
X128257628Y-65072819D01*
X128167123Y-65208269D01*
X128104782Y-65358773D01*
X128073000Y-65518548D01*
X128073000Y-65646355D01*
X127446355Y-66273001D01*
X121908789Y-66273001D01*
X121914840Y-66242582D01*
X124392706Y-63764717D01*
X124418526Y-63743527D01*
X124439718Y-63717705D01*
X124439724Y-63717699D01*
X124503128Y-63640441D01*
X124565992Y-63522830D01*
X124604704Y-63395215D01*
X124610363Y-63337757D01*
X124614500Y-63295752D01*
X124614500Y-63295745D01*
X124617774Y-63262500D01*
X124614500Y-63229255D01*
X124614500Y-62613933D01*
X127084924Y-62613933D01*
X127084924Y-62776837D01*
X127116706Y-62936612D01*
X127179047Y-63087116D01*
X127269552Y-63222566D01*
X127384743Y-63337757D01*
X127520193Y-63428262D01*
X127670697Y-63490603D01*
X127830472Y-63522385D01*
X127958279Y-63522385D01*
X128807047Y-64371154D01*
X128824328Y-64392211D01*
X128845384Y-64409491D01*
X128908380Y-64461191D01*
X128916399Y-64465477D01*
X128957628Y-64527181D01*
X129072819Y-64642372D01*
X129208269Y-64732877D01*
X129358773Y-64795218D01*
X129518548Y-64827000D01*
X129681452Y-64827000D01*
X129841227Y-64795218D01*
X129991731Y-64732877D01*
X130127181Y-64642372D01*
X130242372Y-64527181D01*
X130332877Y-64391731D01*
X130395218Y-64241227D01*
X130427000Y-64081452D01*
X130427000Y-63918548D01*
X130395218Y-63758773D01*
X130332877Y-63608269D01*
X130242372Y-63472819D01*
X130127181Y-63357628D01*
X129991731Y-63267123D01*
X129841227Y-63204782D01*
X129681452Y-63173000D01*
X129518548Y-63173000D01*
X129358773Y-63204782D01*
X129247894Y-63250710D01*
X129010732Y-63013548D01*
X131828000Y-63013548D01*
X131828000Y-63176452D01*
X131859782Y-63336227D01*
X131922123Y-63486731D01*
X132012628Y-63622181D01*
X132127819Y-63737372D01*
X132263269Y-63827877D01*
X132413773Y-63890218D01*
X132512418Y-63909840D01*
X133120278Y-64517701D01*
X133141473Y-64543527D01*
X133167299Y-64564722D01*
X133167301Y-64564724D01*
X133176888Y-64572592D01*
X133234324Y-64680047D01*
X133317997Y-64782003D01*
X133384545Y-64836617D01*
X133305820Y-64860498D01*
X133195506Y-64919463D01*
X133098815Y-64998815D01*
X133019463Y-65095506D01*
X132960498Y-65205820D01*
X132924188Y-65325518D01*
X132911928Y-65450000D01*
X132915000Y-65651750D01*
X133073750Y-65810500D01*
X134123000Y-65810500D01*
X134123000Y-65790500D01*
X134377000Y-65790500D01*
X134377000Y-65810500D01*
X135426250Y-65810500D01*
X135585000Y-65651750D01*
X135588072Y-65450000D01*
X135575812Y-65325518D01*
X135539502Y-65205820D01*
X135480537Y-65095506D01*
X135401185Y-64998815D01*
X135304494Y-64919463D01*
X135194180Y-64860498D01*
X135115455Y-64836617D01*
X135182003Y-64782003D01*
X135265676Y-64680047D01*
X135327851Y-64563726D01*
X135366138Y-64437510D01*
X135379066Y-64306250D01*
X135379066Y-63818750D01*
X135366138Y-63687490D01*
X135327851Y-63561274D01*
X135265676Y-63444953D01*
X135182003Y-63342997D01*
X135080047Y-63259324D01*
X134963726Y-63197149D01*
X134837510Y-63158862D01*
X134706250Y-63145934D01*
X133793750Y-63145934D01*
X133675048Y-63157625D01*
X133469840Y-62952418D01*
X133450218Y-62853773D01*
X133387877Y-62703269D01*
X133297372Y-62567819D01*
X133182181Y-62452628D01*
X133046731Y-62362123D01*
X132896227Y-62299782D01*
X132736452Y-62268000D01*
X132573548Y-62268000D01*
X132413773Y-62299782D01*
X132263269Y-62362123D01*
X132127819Y-62452628D01*
X132012628Y-62567819D01*
X131922123Y-62703269D01*
X131859782Y-62853773D01*
X131828000Y-63013548D01*
X129010732Y-63013548D01*
X128738924Y-62741740D01*
X128738924Y-62613933D01*
X128707142Y-62454158D01*
X128644801Y-62303654D01*
X128554296Y-62168204D01*
X128439105Y-62053013D01*
X128303655Y-61962508D01*
X128153151Y-61900167D01*
X127993376Y-61868385D01*
X127830472Y-61868385D01*
X127670697Y-61900167D01*
X127520193Y-61962508D01*
X127384743Y-62053013D01*
X127269552Y-62168204D01*
X127179047Y-62303654D01*
X127116706Y-62454158D01*
X127084924Y-62613933D01*
X124614500Y-62613933D01*
X124614500Y-60216884D01*
X124657003Y-60182003D01*
X124740676Y-60080047D01*
X124802851Y-59963726D01*
X124841138Y-59837510D01*
X124854066Y-59706250D01*
X124854066Y-58793750D01*
X124841138Y-58662490D01*
X124802851Y-58536274D01*
X124740676Y-58419953D01*
X124657003Y-58317997D01*
X124614500Y-58283116D01*
X124614500Y-57767305D01*
X124617547Y-57765676D01*
X124719503Y-57682003D01*
X124803176Y-57580047D01*
X124865351Y-57463726D01*
X124903638Y-57337510D01*
X124916566Y-57206250D01*
X124916566Y-56293750D01*
X124903638Y-56162490D01*
X124865351Y-56036274D01*
X124803176Y-55919953D01*
X124719503Y-55817997D01*
X124617547Y-55734324D01*
X124501226Y-55672149D01*
X124375010Y-55633862D01*
X124243750Y-55620934D01*
X123756250Y-55620934D01*
X123624990Y-55633862D01*
X123498774Y-55672149D01*
X123382453Y-55734324D01*
X123280497Y-55817997D01*
X123196824Y-55919953D01*
X123134649Y-56036274D01*
X123096362Y-56162490D01*
X123083434Y-56293750D01*
X123083434Y-57206250D01*
X123096362Y-57337510D01*
X123134649Y-57463726D01*
X123196824Y-57580047D01*
X123260501Y-57657637D01*
X123260500Y-58283115D01*
X123217997Y-58317997D01*
X123134324Y-58419953D01*
X123072149Y-58536274D01*
X123033862Y-58662490D01*
X123020934Y-58793750D01*
X123020934Y-59706250D01*
X123033862Y-59837510D01*
X123072149Y-59963726D01*
X123134324Y-60080047D01*
X123217997Y-60182003D01*
X123260501Y-60216885D01*
X123260500Y-62982077D01*
X122118526Y-64124051D01*
X122127000Y-64081452D01*
X122127000Y-63918548D01*
X122095218Y-63758773D01*
X122032877Y-63608269D01*
X121942372Y-63472819D01*
X121827181Y-63357628D01*
X121691731Y-63267123D01*
X121541227Y-63204782D01*
X121381452Y-63173000D01*
X121218548Y-63173000D01*
X121058773Y-63204782D01*
X120908269Y-63267123D01*
X120772819Y-63357628D01*
X120657628Y-63472819D01*
X120567123Y-63608269D01*
X120504782Y-63758773D01*
X120473000Y-63918548D01*
X120473000Y-64046355D01*
X120003855Y-64515501D01*
X119982788Y-64532790D01*
X119913808Y-64616843D01*
X119871483Y-64696029D01*
X119799482Y-64674188D01*
X119675000Y-64661928D01*
X119473250Y-64665000D01*
X119314500Y-64823750D01*
X119060500Y-64823750D01*
X118901750Y-64665000D01*
X118700000Y-64661928D01*
X118575518Y-64674188D01*
X118455820Y-64710498D01*
X118345506Y-64769463D01*
X118248815Y-64848815D01*
X118169463Y-64945506D01*
X118110498Y-65055820D01*
X118086617Y-65134545D01*
X118032003Y-65067997D01*
X117930047Y-64984324D01*
X117813726Y-64922149D01*
X117687510Y-64883862D01*
X117556250Y-64870934D01*
X117068750Y-64870934D01*
X116937490Y-64883862D01*
X116811274Y-64922149D01*
X116694953Y-64984324D01*
X116592997Y-65067997D01*
X116515771Y-65162097D01*
X116495218Y-65058773D01*
X116432877Y-64908269D01*
X116342372Y-64772819D01*
X116227181Y-64657628D01*
X116091731Y-64567123D01*
X115941227Y-64504782D01*
X115781452Y-64473000D01*
X115618548Y-64473000D01*
X115458773Y-64504782D01*
X115308269Y-64567123D01*
X115172819Y-64657628D01*
X115057628Y-64772819D01*
X115052000Y-64781242D01*
X115052000Y-62917553D01*
X115142372Y-62827181D01*
X115232877Y-62691731D01*
X115295218Y-62541227D01*
X115327000Y-62381452D01*
X115327000Y-62218548D01*
X115295218Y-62058773D01*
X115232877Y-61908269D01*
X115142372Y-61772819D01*
X115027181Y-61657628D01*
X114891731Y-61567123D01*
X114741227Y-61504782D01*
X114581452Y-61473000D01*
X114453645Y-61473000D01*
X114379066Y-61398421D01*
X114379066Y-60943750D01*
X114366138Y-60812490D01*
X114327851Y-60686274D01*
X114265676Y-60569953D01*
X114182003Y-60467997D01*
X114115455Y-60413383D01*
X114194180Y-60389502D01*
X114304494Y-60330537D01*
X114401185Y-60251185D01*
X114480537Y-60154494D01*
X114539502Y-60044180D01*
X114575812Y-59924482D01*
X114588072Y-59800000D01*
X114585000Y-59598250D01*
X114426250Y-59439500D01*
X113377000Y-59439500D01*
X113377000Y-59459500D01*
X113123000Y-59459500D01*
X113123000Y-59439500D01*
X112073750Y-59439500D01*
X111915000Y-59598250D01*
X111911928Y-59800000D01*
X111924188Y-59924482D01*
X111960498Y-60044180D01*
X112019463Y-60154494D01*
X112098815Y-60251185D01*
X112195506Y-60330537D01*
X112305820Y-60389502D01*
X112384545Y-60413383D01*
X112317997Y-60467997D01*
X112234324Y-60569953D01*
X112172149Y-60686274D01*
X112133862Y-60812490D01*
X112120934Y-60943750D01*
X112120934Y-61431250D01*
X112133862Y-61562510D01*
X112172149Y-61688726D01*
X112234324Y-61805047D01*
X112317997Y-61907003D01*
X112419953Y-61990676D01*
X112536274Y-62052851D01*
X112662490Y-62091138D01*
X112793750Y-62104066D01*
X113523421Y-62104066D01*
X113673000Y-62253645D01*
X113673000Y-62381452D01*
X113704782Y-62541227D01*
X113767123Y-62691731D01*
X113857628Y-62827181D01*
X113948001Y-62917554D01*
X113948001Y-63115038D01*
X113886273Y-63022655D01*
X113727345Y-62863727D01*
X113540466Y-62738859D01*
X113332817Y-62652848D01*
X113112379Y-62609000D01*
X112887621Y-62609000D01*
X112667183Y-62652848D01*
X112459534Y-62738859D01*
X112272655Y-62863727D01*
X112113727Y-63022655D01*
X112000000Y-63192860D01*
X111886273Y-63022655D01*
X111727345Y-62863727D01*
X111540466Y-62738859D01*
X111332817Y-62652848D01*
X111112379Y-62609000D01*
X110887621Y-62609000D01*
X110667183Y-62652848D01*
X110459534Y-62738859D01*
X110272655Y-62863727D01*
X110113727Y-63022655D01*
X109988859Y-63209534D01*
X109902848Y-63417183D01*
X109859000Y-63637621D01*
X105452000Y-63637621D01*
X105452000Y-60584130D01*
X106865475Y-60584130D01*
X107040491Y-60915867D01*
X107442168Y-61122437D01*
X107876428Y-61246674D01*
X108326581Y-61283804D01*
X108775328Y-61232400D01*
X109205424Y-61094438D01*
X109539509Y-60915867D01*
X109714525Y-60584130D01*
X108290000Y-59159605D01*
X106865475Y-60584130D01*
X105452000Y-60584130D01*
X105452000Y-59016581D01*
X105986196Y-59016581D01*
X106037600Y-59465328D01*
X106175562Y-59895424D01*
X106354133Y-60229509D01*
X106685870Y-60404525D01*
X108110395Y-58980000D01*
X108469605Y-58980000D01*
X109894130Y-60404525D01*
X110225867Y-60229509D01*
X110432437Y-59827832D01*
X110556674Y-59393572D01*
X110593804Y-58943419D01*
X110580240Y-58825000D01*
X111911928Y-58825000D01*
X111915000Y-59026750D01*
X112073750Y-59185500D01*
X113123000Y-59185500D01*
X113123000Y-58348750D01*
X113377000Y-58348750D01*
X113377000Y-59185500D01*
X114426250Y-59185500D01*
X114493202Y-59118548D01*
X119873000Y-59118548D01*
X119873000Y-59281452D01*
X119904782Y-59441227D01*
X119967123Y-59591731D01*
X120057628Y-59727181D01*
X120172819Y-59842372D01*
X120308269Y-59932877D01*
X120458773Y-59995218D01*
X120618548Y-60027000D01*
X120781452Y-60027000D01*
X120941227Y-59995218D01*
X121091731Y-59932877D01*
X121171602Y-59879509D01*
X121197149Y-59963726D01*
X121259324Y-60080047D01*
X121342997Y-60182003D01*
X121444953Y-60265676D01*
X121561274Y-60327851D01*
X121687490Y-60366138D01*
X121818750Y-60379066D01*
X122306250Y-60379066D01*
X122437510Y-60366138D01*
X122563726Y-60327851D01*
X122680047Y-60265676D01*
X122782003Y-60182003D01*
X122865676Y-60080047D01*
X122927851Y-59963726D01*
X122966138Y-59837510D01*
X122979066Y-59706250D01*
X122979066Y-58793750D01*
X122966138Y-58662490D01*
X122927851Y-58536274D01*
X122865676Y-58419953D01*
X122782003Y-58317997D01*
X122680047Y-58234324D01*
X122563726Y-58172149D01*
X122437510Y-58133862D01*
X122306250Y-58120934D01*
X121818750Y-58120934D01*
X121687490Y-58133862D01*
X121561274Y-58172149D01*
X121444953Y-58234324D01*
X121342997Y-58317997D01*
X121259324Y-58419953D01*
X121204244Y-58523000D01*
X121175357Y-58523000D01*
X121091731Y-58467123D01*
X120941227Y-58404782D01*
X120781452Y-58373000D01*
X120618548Y-58373000D01*
X120458773Y-58404782D01*
X120308269Y-58467123D01*
X120172819Y-58557628D01*
X120057628Y-58672819D01*
X119967123Y-58808269D01*
X119904782Y-58958773D01*
X119873000Y-59118548D01*
X114493202Y-59118548D01*
X114585000Y-59026750D01*
X114588072Y-58825000D01*
X114575812Y-58700518D01*
X114539502Y-58580820D01*
X114480537Y-58470506D01*
X114401185Y-58373815D01*
X114304494Y-58294463D01*
X114194180Y-58235498D01*
X114074482Y-58199188D01*
X113950000Y-58186928D01*
X113535750Y-58190000D01*
X113377000Y-58348750D01*
X113123000Y-58348750D01*
X112964250Y-58190000D01*
X112550000Y-58186928D01*
X112425518Y-58199188D01*
X112305820Y-58235498D01*
X112195506Y-58294463D01*
X112098815Y-58373815D01*
X112019463Y-58470506D01*
X111960498Y-58580820D01*
X111924188Y-58700518D01*
X111911928Y-58825000D01*
X110580240Y-58825000D01*
X110542400Y-58494672D01*
X110404438Y-58064576D01*
X110225867Y-57730491D01*
X109894130Y-57555475D01*
X108469605Y-58980000D01*
X108110395Y-58980000D01*
X106685870Y-57555475D01*
X106354133Y-57730491D01*
X106147563Y-58132168D01*
X106023326Y-58566428D01*
X105986196Y-59016581D01*
X105452000Y-59016581D01*
X105452000Y-57375870D01*
X106865475Y-57375870D01*
X108290000Y-58800395D01*
X109714525Y-57375870D01*
X109539509Y-57044133D01*
X109137832Y-56837563D01*
X108721826Y-56718548D01*
X119873000Y-56718548D01*
X119873000Y-56881452D01*
X119904782Y-57041227D01*
X119967123Y-57191731D01*
X120057628Y-57327181D01*
X120172819Y-57442372D01*
X120308269Y-57532877D01*
X120458773Y-57595218D01*
X120618548Y-57627000D01*
X120781452Y-57627000D01*
X120941227Y-57595218D01*
X121091731Y-57532877D01*
X121227181Y-57442372D01*
X121242553Y-57427000D01*
X121248508Y-57427000D01*
X121259649Y-57463726D01*
X121321824Y-57580047D01*
X121405497Y-57682003D01*
X121507453Y-57765676D01*
X121623774Y-57827851D01*
X121749990Y-57866138D01*
X121881250Y-57879066D01*
X122368750Y-57879066D01*
X122500010Y-57866138D01*
X122626226Y-57827851D01*
X122742547Y-57765676D01*
X122844503Y-57682003D01*
X122928176Y-57580047D01*
X122990351Y-57463726D01*
X123028638Y-57337510D01*
X123041566Y-57206250D01*
X123041566Y-56293750D01*
X123028638Y-56162490D01*
X122990351Y-56036274D01*
X122928176Y-55919953D01*
X122844503Y-55817997D01*
X122742547Y-55734324D01*
X122626226Y-55672149D01*
X122500010Y-55633862D01*
X122368750Y-55620934D01*
X121881250Y-55620934D01*
X121749990Y-55633862D01*
X121623774Y-55672149D01*
X121507453Y-55734324D01*
X121405497Y-55817997D01*
X121321824Y-55919953D01*
X121259649Y-56036274D01*
X121248508Y-56073000D01*
X121100527Y-56073000D01*
X121091731Y-56067123D01*
X120941227Y-56004782D01*
X120781452Y-55973000D01*
X120618548Y-55973000D01*
X120458773Y-56004782D01*
X120308269Y-56067123D01*
X120172819Y-56157628D01*
X120057628Y-56272819D01*
X119967123Y-56408269D01*
X119904782Y-56558773D01*
X119873000Y-56718548D01*
X108721826Y-56718548D01*
X108703572Y-56713326D01*
X108253419Y-56676196D01*
X107804672Y-56727600D01*
X107374576Y-56865562D01*
X107040491Y-57044133D01*
X106865475Y-57375870D01*
X105452000Y-57375870D01*
X105452000Y-55452000D01*
X130272394Y-55452000D01*
X135873000Y-61052606D01*
G04 #@! TD*
M02*
