G04 #@! TF.GenerationSoftware,KiCad,Pcbnew,(5.1.6)-1*
G04 #@! TF.CreationDate,2020-09-01T22:28:32+02:00*
G04 #@! TF.ProjectId,UtU,5574552e-6b69-4636-9164-5f7063625858,rev?*
G04 #@! TF.SameCoordinates,Original*
G04 #@! TF.FileFunction,Paste,Top*
G04 #@! TF.FilePolarity,Positive*
%FSLAX46Y46*%
G04 Gerber Fmt 4.6, Leading zero omitted, Abs format (unit mm)*
G04 Created by KiCad (PCBNEW (5.1.6)-1) date 2020-09-01 22:28:32*
%MOMM*%
%LPD*%
G01*
G04 APERTURE LIST*
%ADD10C,0.010000*%
%ADD11C,0.100000*%
%ADD12R,1.449999X0.560000*%
%ADD13R,1.310000X0.550000*%
%ADD14R,1.310000X0.940000*%
G04 APERTURE END LIST*
D10*
G04 #@! TO.C,U2*
G36*
X126617229Y-64750000D02*
G01*
X126150538Y-65216690D01*
X125683848Y-64750000D01*
X126150538Y-64283310D01*
X126617229Y-64750000D01*
G37*
X126617229Y-64750000D02*
X126150538Y-65216690D01*
X125683848Y-64750000D01*
X126150538Y-64283310D01*
X126617229Y-64750000D01*
G36*
X125966690Y-65400538D02*
G01*
X125500000Y-65867229D01*
X125033310Y-65400538D01*
X125500000Y-64933848D01*
X125966690Y-65400538D01*
G37*
X125966690Y-65400538D02*
X125500000Y-65867229D01*
X125033310Y-65400538D01*
X125500000Y-64933848D01*
X125966690Y-65400538D01*
G36*
X125316152Y-64750000D02*
G01*
X124849462Y-65216690D01*
X124382771Y-64750000D01*
X124849462Y-64283310D01*
X125316152Y-64750000D01*
G37*
X125316152Y-64750000D02*
X124849462Y-65216690D01*
X124382771Y-64750000D01*
X124849462Y-64283310D01*
X125316152Y-64750000D01*
G36*
X125966690Y-64099462D02*
G01*
X125500000Y-64566152D01*
X125033310Y-64099462D01*
X125500000Y-63632771D01*
X125966690Y-64099462D01*
G37*
X125966690Y-64099462D02*
X125500000Y-64566152D01*
X125033310Y-64099462D01*
X125500000Y-63632771D01*
X125966690Y-64099462D01*
G04 #@! TD*
D11*
G04 #@! TO.C,U2*
G36*
X127395046Y-65039914D02*
G01*
X127967802Y-65612670D01*
X127741528Y-65838944D01*
X127168772Y-65266188D01*
X127395046Y-65039914D01*
G37*
G36*
X126935427Y-65499534D02*
G01*
X127508183Y-66072290D01*
X127281909Y-66298564D01*
X126709153Y-65725808D01*
X126935427Y-65499534D01*
G37*
G36*
X126475808Y-65959153D02*
G01*
X127048564Y-66531909D01*
X126822290Y-66758183D01*
X126249534Y-66185427D01*
X126475808Y-65959153D01*
G37*
G36*
X126016188Y-66418772D02*
G01*
X126588944Y-66991528D01*
X126362670Y-67217802D01*
X125789914Y-66645046D01*
X126016188Y-66418772D01*
G37*
G36*
X124983812Y-66418772D02*
G01*
X125210086Y-66645046D01*
X124637330Y-67217802D01*
X124411056Y-66991528D01*
X124983812Y-66418772D01*
G37*
G36*
X124524192Y-65959153D02*
G01*
X124750466Y-66185427D01*
X124177710Y-66758183D01*
X123951436Y-66531909D01*
X124524192Y-65959153D01*
G37*
G36*
X124064573Y-65499534D02*
G01*
X124290847Y-65725808D01*
X123718091Y-66298564D01*
X123491817Y-66072290D01*
X124064573Y-65499534D01*
G37*
G36*
X123604954Y-65039914D02*
G01*
X123831228Y-65266188D01*
X123258472Y-65838944D01*
X123032198Y-65612670D01*
X123604954Y-65039914D01*
G37*
G36*
X123258472Y-63661056D02*
G01*
X123831228Y-64233812D01*
X123604954Y-64460086D01*
X123032198Y-63887330D01*
X123258472Y-63661056D01*
G37*
G36*
X123718091Y-63201436D02*
G01*
X124290847Y-63774192D01*
X124064573Y-64000466D01*
X123491817Y-63427710D01*
X123718091Y-63201436D01*
G37*
G36*
X124177710Y-62741817D02*
G01*
X124750466Y-63314573D01*
X124524192Y-63540847D01*
X123951436Y-62968091D01*
X124177710Y-62741817D01*
G37*
G36*
X124637330Y-62282198D02*
G01*
X125210086Y-62854954D01*
X124983812Y-63081228D01*
X124411056Y-62508472D01*
X124637330Y-62282198D01*
G37*
G36*
X126362670Y-62282198D02*
G01*
X126588944Y-62508472D01*
X126016188Y-63081228D01*
X125789914Y-62854954D01*
X126362670Y-62282198D01*
G37*
G36*
X126822290Y-62741817D02*
G01*
X127048564Y-62968091D01*
X126475808Y-63540847D01*
X126249534Y-63314573D01*
X126822290Y-62741817D01*
G37*
G36*
X127281909Y-63201436D02*
G01*
X127508183Y-63427710D01*
X126935427Y-64000466D01*
X126709153Y-63774192D01*
X127281909Y-63201436D01*
G37*
G36*
X127741528Y-63661056D02*
G01*
X127967802Y-63887330D01*
X127395046Y-64460086D01*
X127168772Y-64233812D01*
X127741528Y-63661056D01*
G37*
G04 #@! TD*
D12*
G04 #@! TO.C,U1*
X144130000Y-63095000D03*
X144130000Y-64365000D03*
X144130000Y-65635000D03*
X144130000Y-66905000D03*
X134370000Y-66905000D03*
X134370000Y-65635000D03*
X134370000Y-64365000D03*
X134370000Y-63095000D03*
G04 #@! TD*
G04 #@! TO.C,R2*
G36*
G01*
X118700000Y-61956250D02*
X118700000Y-61043750D01*
G75*
G02*
X118943750Y-60800000I243750J0D01*
G01*
X119431250Y-60800000D01*
G75*
G02*
X119675000Y-61043750I0J-243750D01*
G01*
X119675000Y-61956250D01*
G75*
G02*
X119431250Y-62200000I-243750J0D01*
G01*
X118943750Y-62200000D01*
G75*
G02*
X118700000Y-61956250I0J243750D01*
G01*
G37*
G36*
G01*
X116825000Y-61956250D02*
X116825000Y-61043750D01*
G75*
G02*
X117068750Y-60800000I243750J0D01*
G01*
X117556250Y-60800000D01*
G75*
G02*
X117800000Y-61043750I0J-243750D01*
G01*
X117800000Y-61956250D01*
G75*
G02*
X117556250Y-62200000I-243750J0D01*
G01*
X117068750Y-62200000D01*
G75*
G02*
X116825000Y-61956250I0J243750D01*
G01*
G37*
G04 #@! TD*
G04 #@! TO.C,R1*
G36*
G01*
X117800000Y-63293750D02*
X117800000Y-64206250D01*
G75*
G02*
X117556250Y-64450000I-243750J0D01*
G01*
X117068750Y-64450000D01*
G75*
G02*
X116825000Y-64206250I0J243750D01*
G01*
X116825000Y-63293750D01*
G75*
G02*
X117068750Y-63050000I243750J0D01*
G01*
X117556250Y-63050000D01*
G75*
G02*
X117800000Y-63293750I0J-243750D01*
G01*
G37*
G36*
G01*
X119675000Y-63293750D02*
X119675000Y-64206250D01*
G75*
G02*
X119431250Y-64450000I-243750J0D01*
G01*
X118943750Y-64450000D01*
G75*
G02*
X118700000Y-64206250I0J243750D01*
G01*
X118700000Y-63293750D01*
G75*
G02*
X118943750Y-63050000I243750J0D01*
G01*
X119431250Y-63050000D01*
G75*
G02*
X119675000Y-63293750I0J-243750D01*
G01*
G37*
G04 #@! TD*
G04 #@! TO.C,FB1*
G36*
G01*
X114050000Y-72293750D02*
X114050000Y-73206250D01*
G75*
G02*
X113806250Y-73450000I-243750J0D01*
G01*
X113318750Y-73450000D01*
G75*
G02*
X113075000Y-73206250I0J243750D01*
G01*
X113075000Y-72293750D01*
G75*
G02*
X113318750Y-72050000I243750J0D01*
G01*
X113806250Y-72050000D01*
G75*
G02*
X114050000Y-72293750I0J-243750D01*
G01*
G37*
G36*
G01*
X115925000Y-72293750D02*
X115925000Y-73206250D01*
G75*
G02*
X115681250Y-73450000I-243750J0D01*
G01*
X115193750Y-73450000D01*
G75*
G02*
X114950000Y-73206250I0J243750D01*
G01*
X114950000Y-72293750D01*
G75*
G02*
X115193750Y-72050000I243750J0D01*
G01*
X115681250Y-72050000D01*
G75*
G02*
X115925000Y-72293750I0J-243750D01*
G01*
G37*
G04 #@! TD*
G04 #@! TO.C,D3*
G36*
G01*
X118700000Y-57206250D02*
X118700000Y-56293750D01*
G75*
G02*
X118943750Y-56050000I243750J0D01*
G01*
X119431250Y-56050000D01*
G75*
G02*
X119675000Y-56293750I0J-243750D01*
G01*
X119675000Y-57206250D01*
G75*
G02*
X119431250Y-57450000I-243750J0D01*
G01*
X118943750Y-57450000D01*
G75*
G02*
X118700000Y-57206250I0J243750D01*
G01*
G37*
G36*
G01*
X116825000Y-57206250D02*
X116825000Y-56293750D01*
G75*
G02*
X117068750Y-56050000I243750J0D01*
G01*
X117556250Y-56050000D01*
G75*
G02*
X117800000Y-56293750I0J-243750D01*
G01*
X117800000Y-57206250D01*
G75*
G02*
X117556250Y-57450000I-243750J0D01*
G01*
X117068750Y-57450000D01*
G75*
G02*
X116825000Y-57206250I0J243750D01*
G01*
G37*
G04 #@! TD*
G04 #@! TO.C,D2*
G36*
G01*
X118700000Y-59706250D02*
X118700000Y-58793750D01*
G75*
G02*
X118943750Y-58550000I243750J0D01*
G01*
X119431250Y-58550000D01*
G75*
G02*
X119675000Y-58793750I0J-243750D01*
G01*
X119675000Y-59706250D01*
G75*
G02*
X119431250Y-59950000I-243750J0D01*
G01*
X118943750Y-59950000D01*
G75*
G02*
X118700000Y-59706250I0J243750D01*
G01*
G37*
G36*
G01*
X116825000Y-59706250D02*
X116825000Y-58793750D01*
G75*
G02*
X117068750Y-58550000I243750J0D01*
G01*
X117556250Y-58550000D01*
G75*
G02*
X117800000Y-58793750I0J-243750D01*
G01*
X117800000Y-59706250D01*
G75*
G02*
X117556250Y-59950000I-243750J0D01*
G01*
X117068750Y-59950000D01*
G75*
G02*
X116825000Y-59706250I0J243750D01*
G01*
G37*
G04 #@! TD*
D13*
G04 #@! TO.C,D1*
X117500000Y-70040000D03*
X119500000Y-70040000D03*
D14*
X119500000Y-71760000D03*
D13*
X117500000Y-71960000D03*
G04 #@! TD*
G04 #@! TO.C,C8*
G36*
G01*
X122800000Y-71293750D02*
X122800000Y-72206250D01*
G75*
G02*
X122556250Y-72450000I-243750J0D01*
G01*
X122068750Y-72450000D01*
G75*
G02*
X121825000Y-72206250I0J243750D01*
G01*
X121825000Y-71293750D01*
G75*
G02*
X122068750Y-71050000I243750J0D01*
G01*
X122556250Y-71050000D01*
G75*
G02*
X122800000Y-71293750I0J-243750D01*
G01*
G37*
G36*
G01*
X124675000Y-71293750D02*
X124675000Y-72206250D01*
G75*
G02*
X124431250Y-72450000I-243750J0D01*
G01*
X123943750Y-72450000D01*
G75*
G02*
X123700000Y-72206250I0J243750D01*
G01*
X123700000Y-71293750D01*
G75*
G02*
X123943750Y-71050000I243750J0D01*
G01*
X124431250Y-71050000D01*
G75*
G02*
X124675000Y-71293750I0J-243750D01*
G01*
G37*
G04 #@! TD*
G04 #@! TO.C,C7*
G36*
G01*
X129004419Y-60859184D02*
X128359184Y-61504419D01*
G75*
G02*
X128014470Y-61504419I-172357J172357D01*
G01*
X127669755Y-61159704D01*
G75*
G02*
X127669755Y-60814990I172357J172357D01*
G01*
X128314990Y-60169755D01*
G75*
G02*
X128659704Y-60169755I172357J-172357D01*
G01*
X129004419Y-60514470D01*
G75*
G02*
X129004419Y-60859184I-172357J-172357D01*
G01*
G37*
G36*
G01*
X130330245Y-62185010D02*
X129685010Y-62830245D01*
G75*
G02*
X129340296Y-62830245I-172357J172357D01*
G01*
X128995581Y-62485530D01*
G75*
G02*
X128995581Y-62140816I172357J172357D01*
G01*
X129640816Y-61495581D01*
G75*
G02*
X129985530Y-61495581I172357J-172357D01*
G01*
X130330245Y-61840296D01*
G75*
G02*
X130330245Y-62185010I-172357J-172357D01*
G01*
G37*
G04 #@! TD*
G04 #@! TO.C,C6*
G36*
G01*
X123254419Y-67609184D02*
X122609184Y-68254419D01*
G75*
G02*
X122264470Y-68254419I-172357J172357D01*
G01*
X121919755Y-67909704D01*
G75*
G02*
X121919755Y-67564990I172357J172357D01*
G01*
X122564990Y-66919755D01*
G75*
G02*
X122909704Y-66919755I172357J-172357D01*
G01*
X123254419Y-67264470D01*
G75*
G02*
X123254419Y-67609184I-172357J-172357D01*
G01*
G37*
G36*
G01*
X124580245Y-68935010D02*
X123935010Y-69580245D01*
G75*
G02*
X123590296Y-69580245I-172357J172357D01*
G01*
X123245581Y-69235530D01*
G75*
G02*
X123245581Y-68890816I172357J172357D01*
G01*
X123890816Y-68245581D01*
G75*
G02*
X124235530Y-68245581I172357J-172357D01*
G01*
X124580245Y-68590296D01*
G75*
G02*
X124580245Y-68935010I-172357J-172357D01*
G01*
G37*
G04 #@! TD*
M02*
