G04 #@! TF.GenerationSoftware,KiCad,Pcbnew,(5.1.6)-1*
G04 #@! TF.CreationDate,2020-09-01T22:28:32+02:00*
G04 #@! TF.ProjectId,UtU,5574552e-6b69-4636-9164-5f7063625858,rev?*
G04 #@! TF.SameCoordinates,Original*
G04 #@! TF.FileFunction,Paste,Bot*
G04 #@! TF.FilePolarity,Positive*
%FSLAX46Y46*%
G04 Gerber Fmt 4.6, Leading zero omitted, Abs format (unit mm)*
G04 Created by KiCad (PCBNEW (5.1.6)-1) date 2020-09-01 22:28:32*
%MOMM*%
%LPD*%
G01*
G04 APERTURE LIST*
G04 APERTURE END LIST*
G04 #@! TO.C,R4*
G36*
G01*
X123512500Y-57206250D02*
X123512500Y-56293750D01*
G75*
G02*
X123756250Y-56050000I243750J0D01*
G01*
X124243750Y-56050000D01*
G75*
G02*
X124487500Y-56293750I0J-243750D01*
G01*
X124487500Y-57206250D01*
G75*
G02*
X124243750Y-57450000I-243750J0D01*
G01*
X123756250Y-57450000D01*
G75*
G02*
X123512500Y-57206250I0J243750D01*
G01*
G37*
G36*
G01*
X121637500Y-57206250D02*
X121637500Y-56293750D01*
G75*
G02*
X121881250Y-56050000I243750J0D01*
G01*
X122368750Y-56050000D01*
G75*
G02*
X122612500Y-56293750I0J-243750D01*
G01*
X122612500Y-57206250D01*
G75*
G02*
X122368750Y-57450000I-243750J0D01*
G01*
X121881250Y-57450000D01*
G75*
G02*
X121637500Y-57206250I0J243750D01*
G01*
G37*
G04 #@! TD*
G04 #@! TO.C,R3*
G36*
G01*
X123450000Y-59706250D02*
X123450000Y-58793750D01*
G75*
G02*
X123693750Y-58550000I243750J0D01*
G01*
X124181250Y-58550000D01*
G75*
G02*
X124425000Y-58793750I0J-243750D01*
G01*
X124425000Y-59706250D01*
G75*
G02*
X124181250Y-59950000I-243750J0D01*
G01*
X123693750Y-59950000D01*
G75*
G02*
X123450000Y-59706250I0J243750D01*
G01*
G37*
G36*
G01*
X121575000Y-59706250D02*
X121575000Y-58793750D01*
G75*
G02*
X121818750Y-58550000I243750J0D01*
G01*
X122306250Y-58550000D01*
G75*
G02*
X122550000Y-58793750I0J-243750D01*
G01*
X122550000Y-59706250D01*
G75*
G02*
X122306250Y-59950000I-243750J0D01*
G01*
X121818750Y-59950000D01*
G75*
G02*
X121575000Y-59706250I0J243750D01*
G01*
G37*
G04 #@! TD*
G04 #@! TO.C,C5*
G36*
G01*
X144706250Y-64550000D02*
X143793750Y-64550000D01*
G75*
G02*
X143550000Y-64306250I0J243750D01*
G01*
X143550000Y-63818750D01*
G75*
G02*
X143793750Y-63575000I243750J0D01*
G01*
X144706250Y-63575000D01*
G75*
G02*
X144950000Y-63818750I0J-243750D01*
G01*
X144950000Y-64306250D01*
G75*
G02*
X144706250Y-64550000I-243750J0D01*
G01*
G37*
G36*
G01*
X144706250Y-66425000D02*
X143793750Y-66425000D01*
G75*
G02*
X143550000Y-66181250I0J243750D01*
G01*
X143550000Y-65693750D01*
G75*
G02*
X143793750Y-65450000I243750J0D01*
G01*
X144706250Y-65450000D01*
G75*
G02*
X144950000Y-65693750I0J-243750D01*
G01*
X144950000Y-66181250D01*
G75*
G02*
X144706250Y-66425000I-243750J0D01*
G01*
G37*
G04 #@! TD*
G04 #@! TO.C,C4*
G36*
G01*
X113706250Y-59800000D02*
X112793750Y-59800000D01*
G75*
G02*
X112550000Y-59556250I0J243750D01*
G01*
X112550000Y-59068750D01*
G75*
G02*
X112793750Y-58825000I243750J0D01*
G01*
X113706250Y-58825000D01*
G75*
G02*
X113950000Y-59068750I0J-243750D01*
G01*
X113950000Y-59556250D01*
G75*
G02*
X113706250Y-59800000I-243750J0D01*
G01*
G37*
G36*
G01*
X113706250Y-61675000D02*
X112793750Y-61675000D01*
G75*
G02*
X112550000Y-61431250I0J243750D01*
G01*
X112550000Y-60943750D01*
G75*
G02*
X112793750Y-60700000I243750J0D01*
G01*
X113706250Y-60700000D01*
G75*
G02*
X113950000Y-60943750I0J-243750D01*
G01*
X113950000Y-61431250D01*
G75*
G02*
X113706250Y-61675000I-243750J0D01*
G01*
G37*
G04 #@! TD*
G04 #@! TO.C,C3*
G36*
G01*
X118700000Y-66456250D02*
X118700000Y-65543750D01*
G75*
G02*
X118943750Y-65300000I243750J0D01*
G01*
X119431250Y-65300000D01*
G75*
G02*
X119675000Y-65543750I0J-243750D01*
G01*
X119675000Y-66456250D01*
G75*
G02*
X119431250Y-66700000I-243750J0D01*
G01*
X118943750Y-66700000D01*
G75*
G02*
X118700000Y-66456250I0J243750D01*
G01*
G37*
G36*
G01*
X116825000Y-66456250D02*
X116825000Y-65543750D01*
G75*
G02*
X117068750Y-65300000I243750J0D01*
G01*
X117556250Y-65300000D01*
G75*
G02*
X117800000Y-65543750I0J-243750D01*
G01*
X117800000Y-66456250D01*
G75*
G02*
X117556250Y-66700000I-243750J0D01*
G01*
X117068750Y-66700000D01*
G75*
G02*
X116825000Y-66456250I0J243750D01*
G01*
G37*
G04 #@! TD*
G04 #@! TO.C,C2*
G36*
G01*
X133793750Y-65450000D02*
X134706250Y-65450000D01*
G75*
G02*
X134950000Y-65693750I0J-243750D01*
G01*
X134950000Y-66181250D01*
G75*
G02*
X134706250Y-66425000I-243750J0D01*
G01*
X133793750Y-66425000D01*
G75*
G02*
X133550000Y-66181250I0J243750D01*
G01*
X133550000Y-65693750D01*
G75*
G02*
X133793750Y-65450000I243750J0D01*
G01*
G37*
G36*
G01*
X133793750Y-63575000D02*
X134706250Y-63575000D01*
G75*
G02*
X134950000Y-63818750I0J-243750D01*
G01*
X134950000Y-64306250D01*
G75*
G02*
X134706250Y-64550000I-243750J0D01*
G01*
X133793750Y-64550000D01*
G75*
G02*
X133550000Y-64306250I0J243750D01*
G01*
X133550000Y-63818750D01*
G75*
G02*
X133793750Y-63575000I243750J0D01*
G01*
G37*
G04 #@! TD*
G04 #@! TO.C,C1*
G36*
G01*
X113456250Y-69050000D02*
X112543750Y-69050000D01*
G75*
G02*
X112300000Y-68806250I0J243750D01*
G01*
X112300000Y-68318750D01*
G75*
G02*
X112543750Y-68075000I243750J0D01*
G01*
X113456250Y-68075000D01*
G75*
G02*
X113700000Y-68318750I0J-243750D01*
G01*
X113700000Y-68806250D01*
G75*
G02*
X113456250Y-69050000I-243750J0D01*
G01*
G37*
G36*
G01*
X113456250Y-70925000D02*
X112543750Y-70925000D01*
G75*
G02*
X112300000Y-70681250I0J243750D01*
G01*
X112300000Y-70193750D01*
G75*
G02*
X112543750Y-69950000I243750J0D01*
G01*
X113456250Y-69950000D01*
G75*
G02*
X113700000Y-70193750I0J-243750D01*
G01*
X113700000Y-70681250D01*
G75*
G02*
X113456250Y-70925000I-243750J0D01*
G01*
G37*
G04 #@! TD*
M02*
