M48
; DRILL file {KiCad (5.1.6)-1} date 09/01/20 22:28:43
; FORMAT={-:-/ absolute / metric / decimal}
; #@! TF.CreationDate,2020-09-01T22:28:43+02:00
; #@! TF.GenerationSoftware,Kicad,Pcbnew,(5.1.6)-1
FMAT,2
METRIC
T1C0.400
T2C0.920
T3C1.000
T4C2.300
%
G90
G05
T1
X108.0Y-63.0
X108.0Y-65.0
X108.0Y-67.0
X111.0Y-57.0
X111.0Y-61.0
X111.0Y-73.0
X113.0Y-57.0
X114.5Y-62.3
X114.6Y-67.9
X115.0Y-57.0
X115.7Y-65.3
X115.8Y-70.5
X116.0Y-59.0
X116.0Y-61.0
X120.7Y-56.8
X120.7Y-59.2
X121.0Y-70.7
X121.1Y-66.1
X121.3Y-64.0
X126.0Y-57.0
X126.0Y-59.0
X126.0Y-61.0
X127.0Y-58.0
X127.0Y-69.0
X127.0Y-71.0
X127.0Y-73.0
X127.912Y-62.695
X128.0Y-57.0
X128.9Y-65.6
X129.0Y-58.0
X129.0Y-69.0
X129.0Y-71.0
X129.0Y-73.0
X129.6Y-64.0
X130.0Y-59.0
X131.0Y-60.0
X131.0Y-69.0
X131.0Y-71.0
X131.0Y-73.0
X132.0Y-61.0
X132.655Y-63.095
X133.0Y-70.0
X145.0Y-60.0
X145.0Y-70.0
X145.845Y-63.095
X147.5Y-57.5
X147.5Y-60.0
X147.5Y-67.5
X147.5Y-70.0
X147.5Y-72.5
X150.0Y-57.5
X150.0Y-72.5
X152.5Y-57.5
X152.5Y-60.0
X152.5Y-62.5
X152.5Y-65.0
X152.5Y-67.5
X152.5Y-70.0
X152.5Y-72.5
T2
X111.0Y-63.75
X111.0Y-66.25
X113.0Y-63.75
X113.0Y-66.25
T3
X150.0Y-61.0
X150.0Y-63.54
X150.0Y-66.08
X150.0Y-68.62
T4
X108.29Y-58.98
X108.29Y-71.02
T0
M30
